<?xml version="1.0" encoding="UTF-8"?>
<svg xmlns="http://www.w3.org/2000/svg" xmlns:xlink="http://www.w3.org/1999/xlink" id="Layer_1" data-name="Layer 1" viewBox="0 0 106.68 106.69">
  <defs>
    <style>.cls-1{fill:none;}.cls-2{fill:#fff;}.cls-3{fill:#a2ba85;}.cls-4{fill:#04312e;}.cls-5{isolation:isolate;}.cls-6{fill:url(#linear-gradient);}.cls-7{fill:url(#linear-gradient-2);}.cls-8{fill:url(#linear-gradient-3);}.cls-9{fill:url(#linear-gradient-4);}.cls-10{fill:url(#linear-gradient-5);}.cls-11{fill:url(#linear-gradient-6);}.cls-12{opacity:0.54;}</style>
    <linearGradient id="linear-gradient" x1="-8.85" y1="157.31" x2="-2.49" y2="183" gradientTransform="matrix(12.65, 0, 0, -6.25, 172.85, 1124.62)" gradientUnits="userSpaceOnUse">
      <stop offset="0" stop-color="#c9bf85"></stop>
      <stop offset="0.17" stop-color="#865b24"></stop>
      <stop offset="0.41" stop-color="#aa8f46"></stop>
      <stop offset="0.59" stop-color="#c0b174"></stop>
      <stop offset="0.68" stop-color="#c9bf85"></stop>
    </linearGradient>
    <linearGradient id="linear-gradient-2" x1="-12.2" y1="157.13" x2="-3.55" y2="169.92" gradientTransform="matrix(9.3, 0, 0, -12.52, 198.56, 2120.58)" xlink:href="#linear-gradient"></linearGradient>
    <linearGradient id="linear-gradient-3" x1="0.25" y1="151.16" x2="1.2" y2="152.36" gradientTransform="matrix(84.72, 0, 0, -133.08, 47.53, 20262.09)" xlink:href="#linear-gradient"></linearGradient>
    <linearGradient id="linear-gradient-4" x1="-5.46" y1="159.29" x2="0.9" y2="184.97" gradientTransform="matrix(12.65, 0, 0, -6.25, 69.03, 1124.62)" xlink:href="#linear-gradient"></linearGradient>
    <linearGradient id="linear-gradient-5" x1="-2.16" y1="163.8" x2="6.49" y2="176.6" gradientTransform="matrix(9.3, 0, 0, -12.52, 53.36, 2120.58)" xlink:href="#linear-gradient"></linearGradient>
    <linearGradient id="linear-gradient-6" x1="0.93" y1="151.64" x2="1.88" y2="152.84" gradientTransform="matrix(84.72, 0, 0, -133.08, -21.88, 20261.93)" xlink:href="#linear-gradient"></linearGradient>
  </defs>
  <g id="best_pharmacy" data-name="best pharmacy">
    <path id="Path_16471" data-name="Path 16471" class="cls-1" d="M127.18,84.14a53.3,53.3,0,1,1-18.83-53.87,53.28,53.28,0,0,1,18.83,53.87Z" transform="translate(-21.89 -18.74)"></path>
    <path id="Path_16472" data-name="Path 16472" class="cls-2" d="M127.18,84.14a53.33,53.33,0,1,1-39.89-64c.66.15,1.31.31,2,.49A53.33,53.33,0,0,1,127.18,84.14Z" transform="translate(-21.89 -18.74)"></path>
    <path id="Path_16473" data-name="Path 16473" class="cls-2" d="M126.6,71.9a52,52,0,0,1-.35,6.24A49.86,49.86,0,0,1,125,84.89c-.23,1-.5,1.88-.8,2.8h0a49.53,49.53,0,0,1-1.89,5A51.39,51.39,0,1,1,126.6,71.9Z" transform="translate(-21.89 -18.74)"></path>
    <path id="Ellipse_32" data-name="Ellipse 32" class="cls-3" d="M72.43,34.47a37.71,37.71,0,1,1-34.82,40.4h0A37.72,37.72,0,0,1,72.43,34.47Z" transform="translate(-21.89 -18.74)"></path>
    <path id="Ellipse_33" data-name="Ellipse 33" class="cls-3" d="M40,70.71A35.24,35.24,0,1,1,73.85,107.3h0A35.24,35.24,0,0,1,40,70.71Z" transform="translate(-21.89 -18.74)"></path>
    <path id="Ellipse_34" data-name="Ellipse 34" class="cls-2" d="M40,70.71A35.24,35.24,0,1,1,73.85,107.3h0A35.24,35.24,0,0,1,40,70.71Z" transform="translate(-21.89 -18.74)"></path>
    <g id="Group_123" data-name="Group 123">
      <path id="Path_16474" data-name="Path 16474" class="cls-4" d="M76,101.69l-2.28,1.43.66-2.61-2.07-1.73L75,98.59l1-2.5,1,2.5,2.69.19-2.07,1.73.66,2.61Z" transform="translate(-21.89 -18.74)"></path>
      <path id="Path_16475" data-name="Path 16475" class="cls-4" d="M66,100.07l-1.64,1,.48-1.88L63.39,98l1.93-.13L66,96.06l.72,1.79,1.93.13-1.48,1.24.47,1.88Z" transform="translate(-21.89 -18.74)"></path>
      <path id="Path_16476" data-name="Path 16476" class="cls-4" d="M86,100.07l-1.64,1,.48-1.88L83.39,98l1.93-.13L86,96.06l.72,1.79,1.93.13-1.48,1.24.47,1.88Z" transform="translate(-21.89 -18.74)"></path>
    </g>
    <g id="PHARMACY" class="cls-5">
      <g class="cls-5">
        <path class="cls-4" d="M50.06,73a2.19,2.19,0,0,1-.91.87,3.35,3.35,0,0,1-1.57.33H46.29v3H44.75V69.44h2.83a3.52,3.52,0,0,1,1.52.31,2.23,2.23,0,0,1,.94.85,2.36,2.36,0,0,1,.31,1.22A2.39,2.39,0,0,1,50.06,73Zm-1.6-.33a1.11,1.11,0,0,0,.31-.82c0-.75-.42-1.12-1.26-1.12H46.29v2.23h1.22A1.37,1.37,0,0,0,48.46,72.64Z" transform="translate(-21.89 -18.74)"></path>
        <path class="cls-4" d="M57.81,69.44v7.68H56.27V73.85H53v3.27H51.44V69.44H53V72.6h3.29V69.44Z" transform="translate(-21.89 -18.74)"></path>
        <path class="cls-4" d="M64,75.66H61l-.51,1.46H58.85l2.76-7.69h1.8l2.76,7.69H64.54Zm-.41-1.23L62.5,71.21l-1.11,3.22Z" transform="translate(-21.89 -18.74)"></path>
        <path class="cls-4" d="M71.16,77.12l-1.69-3h-.73v3H67.2V69.44h2.88a3.35,3.35,0,0,1,1.52.32,2.21,2.21,0,0,1,.94.84A2.27,2.27,0,0,1,71.11,74l1.83,3.11ZM68.74,73H70a1.27,1.27,0,0,0,.93-.3,1.1,1.1,0,0,0,.31-.84A1.07,1.07,0,0,0,71,71a1.31,1.31,0,0,0-.93-.29H68.74Z" transform="translate(-21.89 -18.74)"></path>
        <path class="cls-4" d="M82.62,69.44v7.68H81.08v-5l-2,5H77.86l-2.07-5v5H74.25V69.44H76l2.44,5.71,2.44-5.71Z" transform="translate(-21.89 -18.74)"></path>
        <path class="cls-4" d="M88.85,75.66H85.79l-.5,1.46H83.67l2.76-7.69h1.79L91,77.12H89.36Zm-.42-1.23-1.11-3.22-1.11,3.22Z" transform="translate(-21.89 -18.74)"></path>
        <path class="cls-4" d="M92.16,71.24a3.57,3.57,0,0,1,1.39-1.39,4.15,4.15,0,0,1,4.24.15,3.46,3.46,0,0,1,1.36,1.83H97.38a1.82,1.82,0,0,0-.75-.82,2.12,2.12,0,0,0-1.1-.28,2.28,2.28,0,0,0-1.2.31,2.18,2.18,0,0,0-.81.89,3,3,0,0,0-.29,1.34,3,3,0,0,0,.29,1.34,2.18,2.18,0,0,0,.81.89,2.28,2.28,0,0,0,1.2.31,2.12,2.12,0,0,0,1.1-.28,1.85,1.85,0,0,0,.75-.83h1.77a3.41,3.41,0,0,1-1.35,1.83,3.91,3.91,0,0,1-2.26.66,4,4,0,0,1-2-.5,3.71,3.71,0,0,1-1.39-1.39,4.22,4.22,0,0,1,0-4.06Z" transform="translate(-21.89 -18.74)"></path>
        <path class="cls-4" d="M106.57,69.44l-2.6,5v2.67h-1.54V74.45l-2.6-5h1.74L103.21,73l1.64-3.51Z" transform="translate(-21.89 -18.74)"></path>
      </g>
    </g>
    <g id="Group_124" data-name="Group 124">
      <path id="Path_16477" data-name="Path 16477" class="cls-3" d="M112.65,47.89s-2.24-3.17-4.38-3.39a10.15,10.15,0,0,0-3.79.44s4,2.87,5.92,3.43A2.13,2.13,0,0,0,112.65,47.89Z" transform="translate(-21.89 -18.74)"></path>
      <path id="Path_16478" data-name="Path 16478" class="cls-3" d="M118.93,84.2a1.83,1.83,0,0,0,2.26-.47c1.64-1.49,3.75-7.42,3.75-7.42a21.24,21.24,0,0,0-3.33,2.49C119.91,80.39,118.93,84.2,118.93,84.2Z" transform="translate(-21.89 -18.74)"></path>
      <path id="Path_16479" data-name="Path 16479" class="cls-3" d="M116.6,90.57A41.51,41.51,0,0,0,120.37,75c.17,0,1.16.29,2.11-1,1.34-1.83,2.35-8.12,2.35-8.12A23.31,23.31,0,0,0,122,69.06c-1.09,1.55-1.5,4.34-1.62,5.43,0-.56,0-1.13,0-1.71a47.16,47.16,0,0,0-.59-7.41,2.24,2.24,0,0,0,1.61-1.58c.86-2.16.32-8.51.32-8.51a25.22,25.22,0,0,0-2,3.93,10,10,0,0,0-.44,3.65,45.33,45.33,0,0,0-2-6.72,2.28,2.28,0,0,0,1.41-1.93c.47-2.31-1.2-8.42-1.2-8.42a26.57,26.57,0,0,0-1.22,4.29,12.11,12.11,0,0,0,.46,4.67,45,45,0,0,0-3.78-7.17,2.34,2.34,0,0,0,1.09-2.24c0-2.36-2.82-8-2.82-8a27.85,27.85,0,0,0-.36,4.46,13.36,13.36,0,0,0,1.72,5.22A42.15,42.15,0,0,0,109.61,43a8.35,8.35,0,0,0-3.48-4.4A50,50,0,0,0,98.77,35s4.91,4.69,7.46,6.61a9.85,9.85,0,0,0,3.25,1.71A43.67,43.67,0,0,1,116.59,55a6.58,6.58,0,0,0-2.89-2.92,9.67,9.67,0,0,0-3.74-.4s3.32,3.68,5.07,4.65a2.14,2.14,0,0,0,2.13.12,46.33,46.33,0,0,1,2.27,8.44c-.35-1.14-1.22-3.53-2.6-4.36a9.93,9.93,0,0,0-3.58-1.21s2.58,4.34,4.13,5.67a2.1,2.1,0,0,0,2.15.55,46.67,46.67,0,0,1,.57,7.27c0,.73,0,1.45,0,2.17,0-.5-.39-4-1.89-5.44a10.34,10.34,0,0,0-3.3-2s1.8,4.82,3.09,6.47A2.16,2.16,0,0,0,120,75a41.9,41.9,0,0,1-1.4,9c.06-.8.21-4-1-5.63a11.35,11.35,0,0,0-2.91-2.66s1,5.12,2,7a2.31,2.31,0,0,0,1.86,1.45,40.43,40.43,0,0,1-3,7.8c.25-1.23.61-3.64-.12-5.15A12.43,12.43,0,0,0,113,83.58s.08,5.24.74,7.33a2.58,2.58,0,0,0,1.41,1.77,40.51,40.51,0,0,1-5.56,7.82c.45-1.06,1.37-3.54.89-5.29a12.68,12.68,0,0,0-1.8-3.72s-.84,5.16-.57,7.36a2.76,2.76,0,0,0,1.09,2.06c-.29.31-.57.62-.87.92a43.58,43.58,0,0,1-4.81,4.2,8,8,0,0,0,1.79-4.21,13.15,13.15,0,0,0-.79-4.12,39.71,39.71,0,0,0-2.47,6.89,2.89,2.89,0,0,0,.44,2.21,50.12,50.12,0,0,1-6,3.69c.83-.6,3.06-2.39,3.44-4.27a12.87,12.87,0,0,0,0-4.2A39.78,39.78,0,0,0,96,108.18a2.68,2.68,0,0,0,.1,2.49,54.6,54.6,0,0,1-6.71,2.91c1.11-.56,3.44-1.9,4.09-3.57a12,12,0,0,0,.72-4.14,42.79,42.79,0,0,0-5.1,5.48,2.51,2.51,0,0,0-.33,2.45,58.53,58.53,0,0,1-8.43,2.25A25.08,25.08,0,0,0,75,117.66a25.08,25.08,0,0,0-5.36-1.61,58.06,58.06,0,0,1-8.42-2.25,2.51,2.51,0,0,0-.34-2.45,42.07,42.07,0,0,0-5.1-5.48,12.19,12.19,0,0,0,.72,4.14c.65,1.67,3,3,4.09,3.57a54.6,54.6,0,0,1-6.71-2.91,2.68,2.68,0,0,0,.1-2.49A39.78,39.78,0,0,0,50.08,102a13.15,13.15,0,0,0,0,4.2c.38,1.88,2.61,3.67,3.44,4.27a50.92,50.92,0,0,1-6-3.69,2.89,2.89,0,0,0,.44-2.21,39.07,39.07,0,0,0-2.46-6.89,12.88,12.88,0,0,0-.8,4.12,7.9,7.9,0,0,0,1.8,4.21,42.78,42.78,0,0,1-4.82-4.2c-.3-.3-.58-.61-.87-.92a2.76,2.76,0,0,0,1.09-2.06c.27-2.2-.57-7.36-.57-7.36a13.2,13.2,0,0,0-1.8,3.72c-.48,1.75.44,4.23.89,5.29a40.46,40.46,0,0,1-5.55-7.82,2.61,2.61,0,0,0,1.41-1.77c.65-2.09.74-7.33.74-7.33a12,12,0,0,0-2.41,3.25c-.73,1.51-.38,3.92-.12,5.15a39.83,39.83,0,0,1-3.05-7.8,2.31,2.31,0,0,0,1.86-1.45c1-1.91,2-7,2-7a11.35,11.35,0,0,0-2.91,2.66c-1.16,1.59-1,4.83-1,5.63A42.52,42.52,0,0,1,30,75a2.14,2.14,0,0,0,2.08-1c1.3-1.66,3.09-6.48,3.09-6.48a10.48,10.48,0,0,0-3.29,2C30.38,70.9,30,74.45,30,75c0-.71-.05-1.44-.05-2.17a46.45,46.45,0,0,1,.57-7.26A2.15,2.15,0,0,0,32.67,65c1.55-1.34,4.12-5.68,4.12-5.68a9.88,9.88,0,0,0-3.57,1.21c-1.38.83-2.25,3.22-2.6,4.36a45,45,0,0,1,2.27-8.44A2.14,2.14,0,0,0,35,56.31c1.76-1,5.07-4.65,5.07-4.65a9.63,9.63,0,0,0-3.73.39c-1.2.4-2.24,1.83-2.89,2.92a43.64,43.64,0,0,1,7.1-11.63,9.8,9.8,0,0,0,3.26-1.71C46.36,39.71,51.28,35,51.28,35a49,49,0,0,0-7.36,3.58A8.34,8.34,0,0,0,40.43,43a41.66,41.66,0,0,0-3.08,4.06,13.31,13.31,0,0,0,1.72-5.21,26.58,26.58,0,0,0-.37-4.46s-2.84,5.6-2.81,8A2.34,2.34,0,0,0,37,47.59a43.7,43.7,0,0,0-3.78,7.16,11.9,11.9,0,0,0,.45-4.67,26.42,26.42,0,0,0-1.21-4.28s-1.67,6.1-1.2,8.41a2.3,2.3,0,0,0,1.41,1.94,46.1,46.1,0,0,0-2,6.71,10,10,0,0,0-.43-3.65,25.11,25.11,0,0,0-1.95-3.92s-.54,6.34.32,8.51a2.23,2.23,0,0,0,1.61,1.57,47.19,47.19,0,0,0-.59,7.42c0,.57,0,1.14,0,1.71-.12-1.1-.53-3.89-1.62-5.44a23.23,23.23,0,0,0-2.83-3.2s1,6.28,2.35,8.11c.95,1.29,1.94,1.06,2.11,1a41.56,41.56,0,0,0,3.77,15.61A8.58,8.58,0,0,0,31.08,88a19.24,19.24,0,0,0-3.7-1.67s3.13,5.34,5,6.41a1.86,1.86,0,0,0,2.19,0A40.62,40.62,0,0,0,39,99.37a8.2,8.2,0,0,0-3-1.86A18.18,18.18,0,0,0,32.1,97s4.27,4.29,6.34,4.79a1.9,1.9,0,0,0,2.13-.61c.3.32.59.64.9,1a44.35,44.35,0,0,0,3.6,3.25,7.43,7.43,0,0,0-3-1.12,19.1,19.1,0,0,0-4,.19s4.89,3.43,7,3.53a2,2,0,0,0,2-1,51.12,51.12,0,0,0,5.75,3.59,10.58,10.58,0,0,0-4.7-1.2,19.75,19.75,0,0,0-4,.87s5.48,2.55,7.7,2.28a2.06,2.06,0,0,0,2-1.45A56.15,56.15,0,0,0,60,113.72a11.57,11.57,0,0,0-5-.42,21.23,21.23,0,0,0-4,1.46s6.11,1.68,8.4,1.08a2.15,2.15,0,0,0,1.81-1.68,61.15,61.15,0,0,0,8.4,2.23,24.39,24.39,0,0,1,5,1.47,16,16,0,0,0-4.54,3l.36.12A16,16,0,0,1,75,118a16,16,0,0,1,4.59,3l.35-.12a16,16,0,0,0-4.53-3,24.21,24.21,0,0,1,5-1.47,60.64,60.64,0,0,0,8.39-2.23,2.17,2.17,0,0,0,1.82,1.68c2.29.61,8.4-1.08,8.4-1.08a21.48,21.48,0,0,0-4-1.46,11.47,11.47,0,0,0-5,.42A55.47,55.47,0,0,0,96.24,111a2.06,2.06,0,0,0,2,1.45c2.22.27,7.7-2.28,7.7-2.28a19.89,19.89,0,0,0-4-.87,10.66,10.66,0,0,0-4.71,1.2,49.38,49.38,0,0,0,5.75-3.59,2,2,0,0,0,2,1c2.15-.1,7-3.53,7-3.53a19.2,19.2,0,0,0-4-.19,7.39,7.39,0,0,0-3,1.12,44.35,44.35,0,0,0,3.6-3.25c.3-.31.6-.63.89-1a1.92,1.92,0,0,0,2.14.61C113.69,101.23,118,97,118,97a18.27,18.27,0,0,0-4,.56,8.24,8.24,0,0,0-3,1.86,39.93,39.93,0,0,0,4.45-6.57,1.88,1.88,0,0,0,2.2,0c1.87-1.07,5-6.41,5-6.41A19.43,19.43,0,0,0,119,88a8.42,8.42,0,0,0-2.37,2.53Z" transform="translate(-21.89 -18.74)"></path>
      <path id="Path_16480" data-name="Path 16480" class="cls-3" d="M41.78,44.5c-2.14.22-4.39,3.39-4.39,3.39a2.12,2.12,0,0,0,2.26.48c1.91-.56,5.92-3.42,5.92-3.42a10.16,10.16,0,0,0-3.79-.46Z" transform="translate(-21.89 -18.74)"></path>
      <path id="Path_16481" data-name="Path 16481" class="cls-3" d="M31.11,84.2s-1-3.81-2.67-5.4a21.32,21.32,0,0,0-3.34-2.49s2.11,5.94,3.75,7.42A1.82,1.82,0,0,0,31.11,84.2Z" transform="translate(-21.89 -18.74)"></path>
      <path id="Path_16482" data-name="Path 16482" class="cls-3" d="M71.42,31l2.92-1.84L77.26,31l-.84-3.35,2.65-2.21-3.44-.24L74.35,22l-1.29,3.2-3.44.24,2.65,2.21Z" transform="translate(-21.89 -18.74)"></path>
      <path id="Path_16483" data-name="Path 16483" class="cls-3" d="M54.53,32.72l.35,1.77,1-1.52,1.8.21-1.15-1.4.75-1.64-1.68.66-1.33-1.22.12,1.8-1.58.89Z" transform="translate(-21.89 -18.74)"></path>
      <path id="Path_16484" data-name="Path 16484" class="cls-3" d="M62.11,31.69l1.69-1.88,2.42.7L65,28.33l1.42-2.09-2.47.53-1.55-2-.26,2.51-2.38.86,2.31,1Z" transform="translate(-21.89 -18.74)"></path>
      <path id="Path_16485" data-name="Path 16485" class="cls-3" d="M92.71,33l1,1.52L94,32.72l1.75-.45-1.58-.88.11-1.81L93,30.8l-1.68-.66.75,1.64-1.15,1.4Z" transform="translate(-21.89 -18.74)"></path>
      <path id="Path_16486" data-name="Path 16486" class="cls-3" d="M82.34,30.51l2.43-.7,1.69,1.88.08-2.52,2.3-1-2.37-.85-.26-2.51-1.55,2-2.47-.53,1.42,2.09Z" transform="translate(-21.89 -18.74)"></path>
    </g>
    <g id="Group_125" data-name="Group 125">
      <path id="Path_16487" data-name="Path 16487" class="cls-6" d="M112.65,48.43s-2.24-3.16-4.38-3.39a10.13,10.13,0,0,0-3.79.45s4,2.87,5.92,3.42A2.11,2.11,0,0,0,112.65,48.43Z" transform="translate(-21.89 -18.74)"></path>
      <path id="Path_16488" data-name="Path 16488" class="cls-7" d="M118.93,84.75a1.82,1.82,0,0,0,2.26-.48c1.64-1.48,3.75-7.41,3.75-7.41a21.18,21.18,0,0,0-3.33,2.48C119.91,80.94,118.93,84.75,118.93,84.75Z" transform="translate(-21.89 -18.74)"></path>
      <path id="Path_16489" data-name="Path 16489" class="cls-8" d="M116.6,91.12a41.56,41.56,0,0,0,3.77-15.61c.17.06,1.16.29,2.11-1,1.34-1.83,2.35-8.11,2.35-8.11A22.74,22.74,0,0,0,122,69.61c-1.09,1.54-1.5,4.33-1.62,5.43,0-.57,0-1.14,0-1.71a47.38,47.38,0,0,0-.59-7.42,2.21,2.21,0,0,0,1.61-1.57c.86-2.16.32-8.51.32-8.51a24.78,24.78,0,0,0-2,3.93,10,10,0,0,0-.44,3.65,45,45,0,0,0-2-6.72,2.3,2.3,0,0,0,1.41-1.94c.47-2.31-1.2-8.41-1.2-8.41a26.46,26.46,0,0,0-1.22,4.28,11.9,11.9,0,0,0,.46,4.67,44.9,44.9,0,0,0-3.78-7.16,2.38,2.38,0,0,0,1.09-2.24c0-2.37-2.82-8-2.82-8a27.76,27.76,0,0,0-.36,4.46,13.25,13.25,0,0,0,1.72,5.21,44.78,44.78,0,0,0-3.09-4.06,8.33,8.33,0,0,0-3.49-4.39,48.41,48.41,0,0,0-7.35-3.57s4.91,4.69,7.45,6.61a10.39,10.39,0,0,0,3.26,1.71,43.52,43.52,0,0,1,7.11,11.63,6.66,6.66,0,0,0-2.89-2.93A9.86,9.86,0,0,0,110,52.2s3.32,3.68,5.07,4.65a2.14,2.14,0,0,0,2.13.11,46.65,46.65,0,0,1,2.27,8.45c-.35-1.14-1.22-3.53-2.61-4.37a10,10,0,0,0-3.57-1.2s2.58,4.33,4.13,5.67a2.12,2.12,0,0,0,2.15.55,47.72,47.72,0,0,1,.57,7.27c0,.73,0,1.45-.06,2.17,0-.5-.38-4-1.88-5.44a10.17,10.17,0,0,0-3.3-2s1.8,4.82,3.09,6.47a2.17,2.17,0,0,0,2.09,1,42.53,42.53,0,0,1-1.4,9c.06-.81.21-4-1-5.63a11.17,11.17,0,0,0-2.91-2.66s1,5.12,2,7a2.31,2.31,0,0,0,1.86,1.45,40.43,40.43,0,0,1-3,7.8c.25-1.23.61-3.64-.12-5.15A12.46,12.46,0,0,0,113,84.12s.09,5.25.74,7.34a2.64,2.64,0,0,0,1.42,1.77,40.94,40.94,0,0,1-5.56,7.82c.45-1.06,1.37-3.54.89-5.29A12.81,12.81,0,0,0,108.7,92s-.84,5.16-.57,7.36a2.76,2.76,0,0,0,1.09,2.06c-.29.31-.57.62-.87.92a43.81,43.81,0,0,1-4.82,4.2,7.9,7.9,0,0,0,1.8-4.21,12.88,12.88,0,0,0-.8-4.12,39.93,39.93,0,0,0-2.46,6.89,2.89,2.89,0,0,0,.44,2.21,50.12,50.12,0,0,1-6,3.69c.83-.61,3.06-2.39,3.44-4.27a13.21,13.21,0,0,0,0-4.21A39.51,39.51,0,0,0,96,108.73a2.68,2.68,0,0,0,.1,2.49,54.6,54.6,0,0,1-6.71,2.91c1.11-.56,3.44-1.9,4.09-3.57a12,12,0,0,0,.72-4.15,42.38,42.38,0,0,0-5.1,5.49,2.48,2.48,0,0,0-.33,2.45,59.82,59.82,0,0,1-8.43,2.24c-5.39,1-8.54,3.13-10.3,4.86l.35.11c1.76-1.67,4.83-3.65,10-4.64a59.39,59.39,0,0,0,8.4-2.23,2.14,2.14,0,0,0,1.81,1.69c2.29.6,8.4-1.08,8.4-1.08a21,21,0,0,0-4-1.46,11.57,11.57,0,0,0-5,.41,56.08,56.08,0,0,0,6.16-2.7,2.07,2.07,0,0,0,2,1.45c2.22.27,7.7-2.29,7.7-2.29a20.42,20.42,0,0,0-4-.86,10.58,10.58,0,0,0-4.7,1.2,52.6,52.6,0,0,0,5.75-3.59,2,2,0,0,0,2,1c2.15-.11,7-3.53,7-3.53a18.45,18.45,0,0,0-4-.19,7.56,7.56,0,0,0-3,1.11,44.23,44.23,0,0,0,3.6-3.24c.31-.32.6-.64.9-1a1.91,1.91,0,0,0,2.13.62c2.07-.51,6.34-4.8,6.34-4.8a18.82,18.82,0,0,0-4,.57,8.2,8.2,0,0,0-3,1.86,40.62,40.62,0,0,0,4.46-6.57,1.86,1.86,0,0,0,2.19,0c1.87-1.07,5-6.41,5-6.41a19.2,19.2,0,0,0-3.7,1.66A8.74,8.74,0,0,0,116.6,91.12Z" transform="translate(-21.89 -18.74)"></path>
    </g>
    <g id="Group_126" data-name="Group 126">
      <path id="Path_16490" data-name="Path 16490" class="cls-9" d="M37.39,48.43s2.25-3.16,4.39-3.39a10.15,10.15,0,0,1,3.79.45s-4,2.87-5.92,3.42A2.13,2.13,0,0,1,37.39,48.43Z" transform="translate(-21.89 -18.74)"></path>
      <path id="Path_16491" data-name="Path 16491" class="cls-10" d="M31.11,84.75s-1,.68-2.26-.48c-1.63-1.48-3.74-7.41-3.74-7.41a21.65,21.65,0,0,1,3.33,2.48C30.13,80.94,31.11,84.75,31.11,84.75Z" transform="translate(-21.89 -18.74)"></path>
      <path id="Path_16492" data-name="Path 16492" class="cls-11" d="M33.44,91.12a41.73,41.73,0,0,1-3.76-15.61c-.18.06-1.16.29-2.11-1-1.34-1.83-2.35-8.11-2.35-8.11a22.74,22.74,0,0,1,2.83,3.21c1.09,1.54,1.5,4.33,1.62,5.43,0-.57,0-1.14,0-1.71a47.38,47.38,0,0,1,.59-7.42,2.21,2.21,0,0,1-1.61-1.57c-.86-2.16-.32-8.51-.32-8.51a24.78,24.78,0,0,1,1.95,3.93,10,10,0,0,1,.43,3.65,46.23,46.23,0,0,1,2-6.72,2.28,2.28,0,0,1-1.41-1.94c-.47-2.31,1.2-8.41,1.2-8.41a26.42,26.42,0,0,1,1.21,4.28,11.9,11.9,0,0,1-.45,4.67A44.11,44.11,0,0,1,37,48.13a2.34,2.34,0,0,1-1.09-2.24c0-2.37,2.82-8,2.82-8a27.76,27.76,0,0,1,.36,4.46,13.25,13.25,0,0,1-1.72,5.21,42.91,42.91,0,0,1,3.08-4.06,8.38,8.38,0,0,1,3.49-4.39,49,49,0,0,1,7.36-3.57s-4.91,4.69-7.46,6.61a10.23,10.23,0,0,1-3.25,1.71,43.26,43.26,0,0,0-7.11,11.63,6.61,6.61,0,0,1,2.89-2.93,9.86,9.86,0,0,1,3.74-.39S36.77,55.88,35,56.85a2.14,2.14,0,0,1-2.13.11,45.85,45.85,0,0,0-2.27,8.45c.35-1.14,1.22-3.53,2.6-4.37a10.06,10.06,0,0,1,3.57-1.2s-2.57,4.33-4.12,5.67a2.1,2.1,0,0,1-2.15.55A46.67,46.67,0,0,0,30,73.33c0,.73,0,1.45.05,2.17,0-.5.38-4,1.89-5.44a10.12,10.12,0,0,1,3.29-2s-1.79,4.82-3.09,6.47a2.14,2.14,0,0,1-2.08,1,41.89,41.89,0,0,0,1.4,9c-.06-.81-.21-4,1-5.63a11.17,11.17,0,0,1,2.91-2.66s-1,5.12-2,7a2.31,2.31,0,0,1-1.86,1.45,40.43,40.43,0,0,0,3,7.8c-.25-1.23-.61-3.64.12-5.15A12.42,12.42,0,0,1,37,84.12s-.08,5.25-.74,7.34a2.62,2.62,0,0,1-1.41,1.77,40.51,40.51,0,0,0,5.56,7.82c-.45-1.06-1.37-3.54-.89-5.29A12.56,12.56,0,0,1,41.35,92s.84,5.16.57,7.36a2.76,2.76,0,0,1-1.09,2.06c.29.31.57.62.86.92a45.74,45.74,0,0,0,4.82,4.2,7.89,7.89,0,0,1-1.79-4.21,13.15,13.15,0,0,1,.79-4.12A39.71,39.71,0,0,1,48,105.14a2.89,2.89,0,0,1-.44,2.21,50.8,50.8,0,0,0,6,3.69c-.82-.61-3.05-2.39-3.43-4.27a12.93,12.93,0,0,1,0-4.21A39.51,39.51,0,0,1,54,108.73a2.68,2.68,0,0,1-.1,2.49,54.6,54.6,0,0,0,6.71,2.91c-1.11-.56-3.44-1.9-4.1-3.57a12.19,12.19,0,0,1-.71-4.15,42.38,42.38,0,0,1,5.1,5.49,2.51,2.51,0,0,1,.33,2.45,60.05,60.05,0,0,0,8.42,2.24c5.4,1,8.55,3.13,10.31,4.86l-.36.11c-1.75-1.67-4.82-3.65-10-4.64a59.62,59.62,0,0,1-8.39-2.23,2.16,2.16,0,0,1-1.81,1.69C57.1,117,51,115.3,51,115.3a21.32,21.32,0,0,1,4-1.46,11.57,11.57,0,0,1,5,.41,55.41,55.41,0,0,1-6.17-2.7,2.07,2.07,0,0,1-2,1.45c-2.21.27-7.7-2.29-7.7-2.29a20.52,20.52,0,0,1,4-.86,10.58,10.58,0,0,1,4.7,1.2,50.76,50.76,0,0,1-5.75-3.59,2,2,0,0,1-2,1c-2.15-.11-7-3.53-7-3.53a18.57,18.57,0,0,1,4-.19,7.49,7.49,0,0,1,3,1.12,44.35,44.35,0,0,1-3.6-3.25c-.31-.31-.6-.63-.9-1a1.91,1.91,0,0,1-2.13.61c-2.07-.51-6.34-4.79-6.34-4.79a18.18,18.18,0,0,1,3.95.56,8.16,8.16,0,0,1,3,1.86,41.22,41.22,0,0,1-4.45-6.57,1.88,1.88,0,0,1-2.2,0c-1.87-1.07-5-6.41-5-6.41a20.16,20.16,0,0,1,3.7,1.67,8.42,8.42,0,0,1,2.36,2.54Z" transform="translate(-21.89 -18.74)"></path>
    </g>
    <g id="Group_127" data-name="Group 127">
      <path id="Path_16493" data-name="Path 16493" class="cls-4" d="M112.65,48.43s-2.24-3.16-4.38-3.39a10.13,10.13,0,0,0-3.79.45s4,2.87,5.92,3.42A2.11,2.11,0,0,0,112.65,48.43Z" transform="translate(-21.89 -18.74)"></path>
      <path id="Path_16494" data-name="Path 16494" class="cls-4" d="M118.93,84.75a1.82,1.82,0,0,0,2.26-.48c1.64-1.48,3.75-7.41,3.75-7.41a21.18,21.18,0,0,0-3.33,2.48C119.91,80.94,118.93,84.75,118.93,84.75Z" transform="translate(-21.89 -18.74)"></path>
      <path id="Path_16495" data-name="Path 16495" class="cls-4" d="M116.6,91.12a41.56,41.56,0,0,0,3.77-15.61c.17.06,1.16.29,2.11-1,1.34-1.83,2.35-8.11,2.35-8.11A22.74,22.74,0,0,0,122,69.61c-1.09,1.54-1.5,4.33-1.62,5.43,0-.57,0-1.14,0-1.71a47.38,47.38,0,0,0-.59-7.42,2.21,2.21,0,0,0,1.61-1.57c.86-2.16.32-8.51.32-8.51a24.78,24.78,0,0,0-2,3.93,10,10,0,0,0-.44,3.65,45,45,0,0,0-2-6.72,2.3,2.3,0,0,0,1.41-1.94c.47-2.31-1.2-8.41-1.2-8.41a26.46,26.46,0,0,0-1.22,4.28,11.9,11.9,0,0,0,.46,4.67,44.9,44.9,0,0,0-3.78-7.16,2.38,2.38,0,0,0,1.09-2.24c0-2.37-2.82-8-2.82-8a27.76,27.76,0,0,0-.36,4.46,13.25,13.25,0,0,0,1.72,5.21,44.78,44.78,0,0,0-3.09-4.06,8.33,8.33,0,0,0-3.49-4.39,48.41,48.41,0,0,0-7.35-3.57s4.91,4.69,7.45,6.61a10.39,10.39,0,0,0,3.26,1.71,43.52,43.52,0,0,1,7.11,11.63,6.66,6.66,0,0,0-2.89-2.93A9.86,9.86,0,0,0,110,52.2s3.32,3.68,5.07,4.65a2.14,2.14,0,0,0,2.13.11,46.65,46.65,0,0,1,2.27,8.45c-.35-1.14-1.22-3.53-2.61-4.37a10,10,0,0,0-3.57-1.2s2.58,4.33,4.13,5.67a2.12,2.12,0,0,0,2.15.55,47.72,47.72,0,0,1,.57,7.27c0,.73,0,1.45-.06,2.17,0-.5-.38-4-1.88-5.44a10.17,10.17,0,0,0-3.3-2s1.8,4.82,3.09,6.47a2.17,2.17,0,0,0,2.09,1,42.53,42.53,0,0,1-1.4,9c.06-.81.21-4-1-5.63a11.17,11.17,0,0,0-2.91-2.66s1,5.12,2,7a2.31,2.31,0,0,0,1.86,1.45,40.43,40.43,0,0,1-3,7.8c.25-1.23.61-3.64-.12-5.15A12.46,12.46,0,0,0,113,84.12s.09,5.25.74,7.34a2.64,2.64,0,0,0,1.42,1.77,40.94,40.94,0,0,1-5.56,7.82c.45-1.06,1.37-3.54.89-5.29A12.81,12.81,0,0,0,108.7,92s-.84,5.16-.57,7.36a2.76,2.76,0,0,0,1.09,2.06c-.29.31-.57.62-.87.92a43.81,43.81,0,0,1-4.82,4.2,7.9,7.9,0,0,0,1.8-4.21,12.88,12.88,0,0,0-.8-4.12,39.93,39.93,0,0,0-2.46,6.89,2.89,2.89,0,0,0,.44,2.21,50.12,50.12,0,0,1-6,3.69c.83-.61,3.06-2.39,3.44-4.27a13.21,13.21,0,0,0,0-4.21A39.51,39.51,0,0,0,96,108.73a2.68,2.68,0,0,0,.1,2.49,54.6,54.6,0,0,1-6.71,2.91c1.11-.56,3.44-1.9,4.09-3.57a12,12,0,0,0,.72-4.15,42.38,42.38,0,0,0-5.1,5.49,2.48,2.48,0,0,0-.33,2.45,59.82,59.82,0,0,1-8.43,2.24c-5.39,1-8.54,3.13-10.3,4.86l.35.11c1.76-1.67,4.83-3.65,10-4.64a59.39,59.39,0,0,0,8.4-2.23,2.14,2.14,0,0,0,1.81,1.69c2.29.6,8.4-1.08,8.4-1.08a21,21,0,0,0-4-1.46,11.57,11.57,0,0,0-5,.41,56.08,56.08,0,0,0,6.16-2.7,2.07,2.07,0,0,0,2,1.45c2.22.27,7.7-2.29,7.7-2.29a20.42,20.42,0,0,0-4-.86,10.58,10.58,0,0,0-4.7,1.2,52.6,52.6,0,0,0,5.75-3.59,2,2,0,0,0,2,1c2.15-.11,7-3.53,7-3.53a18.45,18.45,0,0,0-4-.19,7.56,7.56,0,0,0-3,1.11,44.23,44.23,0,0,0,3.6-3.24c.31-.32.6-.64.9-1a1.91,1.91,0,0,0,2.13.62c2.07-.51,6.34-4.8,6.34-4.8a18.82,18.82,0,0,0-4,.57,8.2,8.2,0,0,0-3,1.86,40.62,40.62,0,0,0,4.46-6.57,1.86,1.86,0,0,0,2.19,0c1.87-1.07,5-6.41,5-6.41a19.2,19.2,0,0,0-3.7,1.66A8.74,8.74,0,0,0,116.6,91.12Z" transform="translate(-21.89 -18.74)"></path>
    </g>
    <g id="Group_128" data-name="Group 128">
      <path id="Path_16496" data-name="Path 16496" class="cls-4" d="M37.39,48.43s2.25-3.16,4.39-3.39a10.15,10.15,0,0,1,3.79.45s-4,2.87-5.92,3.42A2.13,2.13,0,0,1,37.39,48.43Z" transform="translate(-21.89 -18.74)"></path>
      <path id="Path_16497" data-name="Path 16497" class="cls-4" d="M31.11,84.75s-1,.68-2.26-.48c-1.63-1.48-3.74-7.41-3.74-7.41a21.65,21.65,0,0,1,3.33,2.48C30.13,80.94,31.11,84.75,31.11,84.75Z" transform="translate(-21.89 -18.74)"></path>
      <path id="Path_16498" data-name="Path 16498" class="cls-4" d="M33.44,91.12a41.73,41.73,0,0,1-3.76-15.61c-.18.06-1.16.29-2.11-1-1.34-1.83-2.35-8.11-2.35-8.11a22.74,22.74,0,0,1,2.83,3.21c1.09,1.54,1.5,4.33,1.62,5.43,0-.57,0-1.14,0-1.71a47.38,47.38,0,0,1,.59-7.42,2.21,2.21,0,0,1-1.61-1.57c-.86-2.16-.32-8.51-.32-8.51a24.78,24.78,0,0,1,1.95,3.93,10,10,0,0,1,.43,3.65,46.23,46.23,0,0,1,2-6.72,2.28,2.28,0,0,1-1.41-1.94c-.47-2.31,1.2-8.41,1.2-8.41a26.42,26.42,0,0,1,1.21,4.28,11.9,11.9,0,0,1-.45,4.67A44.11,44.11,0,0,1,37,48.13a2.34,2.34,0,0,1-1.09-2.24c0-2.37,2.82-8,2.82-8a27.76,27.76,0,0,1,.36,4.46,13.25,13.25,0,0,1-1.72,5.21,42.91,42.91,0,0,1,3.08-4.06,8.38,8.38,0,0,1,3.49-4.39,49,49,0,0,1,7.36-3.57s-4.91,4.69-7.46,6.61a10.23,10.23,0,0,1-3.25,1.71,43.26,43.26,0,0,0-7.11,11.63,6.61,6.61,0,0,1,2.89-2.93,9.86,9.86,0,0,1,3.74-.39S36.77,55.88,35,56.85a2.14,2.14,0,0,1-2.13.11,45.85,45.85,0,0,0-2.27,8.45c.35-1.14,1.22-3.53,2.6-4.37a10.06,10.06,0,0,1,3.57-1.2s-2.57,4.33-4.12,5.67a2.1,2.1,0,0,1-2.15.55A46.67,46.67,0,0,0,30,73.33c0,.73,0,1.45.05,2.17,0-.5.38-4,1.89-5.44a10.12,10.12,0,0,1,3.29-2s-1.79,4.82-3.09,6.47a2.14,2.14,0,0,1-2.08,1,41.89,41.89,0,0,0,1.4,9c-.06-.81-.21-4,1-5.63a11.17,11.17,0,0,1,2.91-2.66s-1,5.12-2,7a2.31,2.31,0,0,1-1.86,1.45,40.43,40.43,0,0,0,3,7.8c-.25-1.23-.61-3.64.12-5.15A12.42,12.42,0,0,1,37,84.12s-.08,5.25-.74,7.34a2.62,2.62,0,0,1-1.41,1.77,40.51,40.51,0,0,0,5.56,7.82c-.45-1.06-1.37-3.54-.89-5.29A12.56,12.56,0,0,1,41.35,92s.84,5.16.57,7.36a2.76,2.76,0,0,1-1.09,2.06c.29.31.57.62.86.92a45.74,45.74,0,0,0,4.82,4.2,7.89,7.89,0,0,1-1.79-4.21,13.15,13.15,0,0,1,.79-4.12A39.71,39.71,0,0,1,48,105.14a2.89,2.89,0,0,1-.44,2.21,50.8,50.8,0,0,0,6,3.69c-.82-.61-3.05-2.39-3.43-4.27a12.93,12.93,0,0,1,0-4.21A39.51,39.51,0,0,1,54,108.73a2.68,2.68,0,0,1-.1,2.49,54.6,54.6,0,0,0,6.71,2.91c-1.11-.56-3.44-1.9-4.1-3.57a12.19,12.19,0,0,1-.71-4.15,42.38,42.38,0,0,1,5.1,5.49,2.51,2.51,0,0,1,.33,2.45,60.05,60.05,0,0,0,8.42,2.24c5.4,1,8.55,3.13,10.31,4.86l-.36.11c-1.75-1.67-4.82-3.65-10-4.64a59.62,59.62,0,0,1-8.39-2.23,2.16,2.16,0,0,1-1.81,1.69C57.1,117,51,115.3,51,115.3a21.32,21.32,0,0,1,4-1.46,11.57,11.57,0,0,1,5,.41,55.41,55.41,0,0,1-6.17-2.7,2.07,2.07,0,0,1-2,1.45c-2.21.27-7.7-2.29-7.7-2.29a20.52,20.52,0,0,1,4-.86,10.58,10.58,0,0,1,4.7,1.2,50.76,50.76,0,0,1-5.75-3.59,2,2,0,0,1-2,1c-2.15-.11-7-3.53-7-3.53a18.57,18.57,0,0,1,4-.19,7.49,7.49,0,0,1,3,1.12,44.35,44.35,0,0,1-3.6-3.25c-.31-.31-.6-.63-.9-1a1.91,1.91,0,0,1-2.13.61c-2.07-.51-6.34-4.79-6.34-4.79a18.18,18.18,0,0,1,3.95.56,8.16,8.16,0,0,1,3,1.86,41.22,41.22,0,0,1-4.45-6.57,1.88,1.88,0,0,1-2.2,0c-1.87-1.07-5-6.41-5-6.41a20.16,20.16,0,0,1,3.7,1.67,8.42,8.42,0,0,1,2.36,2.54Z" transform="translate(-21.89 -18.74)"></path>
    </g>
    <g id="Group_129" data-name="Group 129">
      <path id="Path_16499" data-name="Path 16499" class="cls-4" d="M75.63,25.75l-1.29-3.2-1.28,3.2L69.62,26l2.65,2.21-.84,3.35,2.92-1.84,2.92,1.84-.84-3.35L79.08,26Z" transform="translate(-21.89 -18.74)"></path>
      <path id="Path_16500" data-name="Path 16500" class="cls-4" d="M57.25,30.68l-1.68.67-1.32-1.23.11,1.8-1.58.89,1.75.45L54.89,35l1-1.52,1.8.21L56.5,32.33Z" transform="translate(-21.89 -18.74)"></path>
      <path id="Path_16501" data-name="Path 16501" class="cls-4" d="M63.91,27.31l-1.55-2-.26,2.51-2.38.86,2.31,1,.08,2.52,1.69-1.88,2.42.7L65,28.87l1.42-2.09Z" transform="translate(-21.89 -18.74)"></path>
      <path id="Path_16502" data-name="Path 16502" class="cls-4" d="M94.21,31.93l.11-1.8L93,31.35l-1.68-.66.76,1.64-1.15,1.4,1.79-.22,1,1.53L94,33.27l1.75-.45Z" transform="translate(-21.89 -18.74)"></path>
      <path id="Path_16503" data-name="Path 16503" class="cls-4" d="M86.21,25.32l-1.55,2-2.47-.53,1.42,2.09-1.27,2.19,2.43-.71,1.68,1.88.08-2.52,2.31-1-2.37-.86Z" transform="translate(-21.89 -18.74)"></path>
    </g>
    <g id="Group_130" data-name="Group 130" class="cls-12">
      <path id="Path_16504" data-name="Path 16504" class="cls-1" d="M75.63,25.75l-1.29-3.2-1.28,3.2L69.62,26l2.65,2.21-.84,3.35,2.92-1.84,2.92,1.84-.84-3.35L79.08,26Z" transform="translate(-21.89 -18.74)"></path>
      <path id="Path_16505" data-name="Path 16505" class="cls-1" d="M57.25,30.68l-1.68.67-1.32-1.23.11,1.8-1.58.89,1.75.45L54.89,35l1-1.52,1.8.21L56.5,32.33Z" transform="translate(-21.89 -18.74)"></path>
      <path id="Path_16506" data-name="Path 16506" class="cls-1" d="M63.91,27.31l-1.55-2-.26,2.51-2.38.86,2.31,1,.08,2.52,1.69-1.88,2.42.7L65,28.87l1.42-2.09Z" transform="translate(-21.89 -18.74)"></path>
      <path id="Path_16507" data-name="Path 16507" class="cls-1" d="M94.21,31.93l.11-1.8L93,31.35l-1.68-.66.76,1.64-1.15,1.4,1.79-.22,1,1.53L94,33.27l1.75-.45Z" transform="translate(-21.89 -18.74)"></path>
      <path id="Path_16508" data-name="Path 16508" class="cls-1" d="M86.21,25.32l-1.55,2-2.47-.53,1.42,2.09-1.27,2.19,2.43-.71,1.68,1.88.08-2.52,2.31-1-2.37-.86Z" transform="translate(-21.89 -18.74)"></path>
    </g>
    <g id="Group">
      <g id="BEST_ONLINE_" data-name="BEST ONLINE " class="cls-5">
        <g class="cls-5">
          <path class="cls-4" d="M52,65.24a1.35,1.35,0,0,1,.29.85,1.38,1.38,0,0,1-.21.76,1.46,1.46,0,0,1-.62.52,2.33,2.33,0,0,1-1,.18H48.17V62.14h2.24a2.33,2.33,0,0,1,1,.18,1.35,1.35,0,0,1,.6.5,1.27,1.27,0,0,1,.21.72,1.23,1.23,0,0,1-.26.79,1.33,1.33,0,0,1-.67.45A1.2,1.2,0,0,1,52,65.24Zm-2.74-.86h1a.9.9,0,0,0,.6-.18.7.7,0,0,0,0-1,.9.9,0,0,0-.6-.18h-1ZM51,66.48a.63.63,0,0,0,.22-.52.69.69,0,0,0-.23-.55,1,1,0,0,0-.63-.2H49.26v1.46h1.09A.9.9,0,0,0,51,66.48Z" transform="translate(-21.89 -18.74)"></path>
          <path class="cls-4" d="M55,63v1.36h1.82v.86H55v1.43h2.06v.88H53.93V62.13h3.15V63Z" transform="translate(-21.89 -18.74)"></path>
          <path class="cls-4" d="M59.68,67.41a1.57,1.57,0,0,1-.71-.55A1.42,1.42,0,0,1,58.7,66h1.16a.69.69,0,0,0,.24.52.82.82,0,0,0,.58.2.88.88,0,0,0,.6-.19.6.6,0,0,0,.22-.47.57.57,0,0,0-.15-.4,1.08,1.08,0,0,0-.37-.24,5.46,5.46,0,0,0-.61-.2,6.26,6.26,0,0,1-.86-.31,1.51,1.51,0,0,1-.56-.45,1.31,1.31,0,0,1-.24-.82A1.48,1.48,0,0,1,59,62.8a1.55,1.55,0,0,1,.68-.55,2.57,2.57,0,0,1,1-.19,2.16,2.16,0,0,1,1.36.41,1.52,1.52,0,0,1,.58,1.14h-1.2a.63.63,0,0,0-.23-.46.87.87,0,0,0-.59-.19.77.77,0,0,0-.51.17.59.59,0,0,0-.19.47A.49.49,0,0,0,60,64a1,1,0,0,0,.35.23l.6.21a5.32,5.32,0,0,1,.87.31,1.57,1.57,0,0,1,.57.46,1.31,1.31,0,0,1,.24.82,1.49,1.49,0,0,1-.23.8,1.64,1.64,0,0,1-.65.6,2.38,2.38,0,0,1-1,.22A2.61,2.61,0,0,1,59.68,67.41Z" transform="translate(-21.89 -18.74)"></path>
          <path class="cls-4" d="M68,62.14V63H66.57v4.53H65.49V63H64.05v-.88Z" transform="translate(-21.89 -18.74)"></path>
          <path class="cls-4" d="M73.32,67.25a2.78,2.78,0,0,1,0-4.83,2.9,2.9,0,0,1,2.8,0,2.71,2.71,0,0,1,1,1,3,3,0,0,1,0,2.85,2.67,2.67,0,0,1-1,1,2.88,2.88,0,0,1-2.79,0Zm2.26-.83a1.54,1.54,0,0,0,.58-.63,2.12,2.12,0,0,0,.21-1,2,2,0,0,0-.21-.95,1.45,1.45,0,0,0-.58-.62,1.81,1.81,0,0,0-1.73,0,1.45,1.45,0,0,0-.58.62,2,2,0,0,0-.21.95,2.12,2.12,0,0,0,.21,1,1.54,1.54,0,0,0,.58.63,1.81,1.81,0,0,0,1.73,0Z" transform="translate(-21.89 -18.74)"></path>
          <path class="cls-4" d="M83.7,67.55H82.61l-2.46-3.71v3.71H79.07V62.13h1.08l2.46,3.73V62.13H83.7Z" transform="translate(-21.89 -18.74)"></path>
          <path class="cls-4" d="M86.63,66.69h1.78v.86H85.54V62.14h1.09Z" transform="translate(-21.89 -18.74)"></path>
          <path class="cls-4" d="M91,62.14v5.41H89.88V62.14Z" transform="translate(-21.89 -18.74)"></path>
          <path class="cls-4" d="M97.44,67.55H96.35l-2.46-3.71v3.71H92.81V62.13h1.08l2.46,3.73V62.13h1.09Z" transform="translate(-21.89 -18.74)"></path>
          <path class="cls-4" d="M100.37,63v1.36h1.82v.86h-1.82v1.43h2v.88H99.28V62.13h3.14V63Z" transform="translate(-21.89 -18.74)"></path>
        </g>
      </g>
    </g>
  </g>
</svg>
