<?xml version="1.0" encoding="UTF-8"?>
<svg xmlns="http://www.w3.org/2000/svg" xmlns:xlink="http://www.w3.org/1999/xlink" id="Layer_1" data-name="Layer 1" viewBox="0 0 551.42 554.75">
  <defs>
    <style>.cls-1{fill:url(#linear-gradient);}.cls-2{fill:url(#linear-gradient-2);}.cls-3{fill:url(#linear-gradient-3);}.cls-4{fill:url(#linear-gradient-4);}.cls-5{fill:url(#linear-gradient-5);}.cls-6{fill:url(#linear-gradient-6);}.cls-7{fill:url(#linear-gradient-7);}.cls-8{fill:url(#linear-gradient-8);}.cls-9{fill:url(#linear-gradient-9);}.cls-10{fill:url(#linear-gradient-10);}.cls-11{fill:url(#linear-gradient-11);}.cls-12{fill:url(#linear-gradient-12);}.cls-13{fill:url(#linear-gradient-13);}.cls-14{fill:url(#linear-gradient-14);}.cls-15{fill:url(#linear-gradient-15);}.cls-16{fill:url(#linear-gradient-16);}.cls-17{fill:url(#linear-gradient-17);}.cls-18{fill:url(#linear-gradient-18);}.cls-19{fill:url(#linear-gradient-19);}.cls-20{fill:url(#linear-gradient-20);}.cls-21{fill:url(#linear-gradient-21);}.cls-22{fill:url(#linear-gradient-22);}.cls-23{fill:url(#linear-gradient-23);}.cls-24{fill:url(#linear-gradient-24);}.cls-25{fill:url(#linear-gradient-25);}.cls-26{fill:url(#linear-gradient-26);}.cls-27{fill:url(#linear-gradient-27);}.cls-28{fill:url(#linear-gradient-28);}.cls-29{fill:url(#linear-gradient-29);}.cls-30{fill:url(#linear-gradient-30);}.cls-31{fill:url(#linear-gradient-31);}.cls-32{fill:url(#linear-gradient-32);}.cls-33{fill:url(#linear-gradient-33);}.cls-34{fill:url(#linear-gradient-34);}.cls-35{fill:url(#linear-gradient-35);}.cls-36{fill:url(#linear-gradient-36);}.cls-37{fill:url(#linear-gradient-37);}.cls-38{fill:url(#linear-gradient-38);}.cls-39{fill:url(#linear-gradient-39);}.cls-40{fill:url(#linear-gradient-40);}.cls-41{fill:url(#linear-gradient-41);}.cls-42{fill:url(#linear-gradient-42);}.cls-43{isolation:isolate;}</style>
    <linearGradient id="linear-gradient" x1="104.52" y1="277.81" x2="460.74" y2="277.81" gradientUnits="userSpaceOnUse">
      <stop offset="0" stop-color="#ecb71a"></stop>
      <stop offset="0" stop-color="#dda517"></stop>
      <stop offset="0.32" stop-color="#b57a11"></stop>
      <stop offset="0.68" stop-color="#fdd649"></stop>
      <stop offset="1" stop-color="#eccb34"></stop>
    </linearGradient>
    <linearGradient id="linear-gradient-2" x1="196.42" y1="315.1" x2="514.34" y2="315.1" gradientTransform="matrix(1, 0, 0, -1, -72.75, 591.61)" xlink:href="#linear-gradient"></linearGradient>
    <linearGradient id="linear-gradient-3" x1="119.88" y1="167.34" x2="171.43" y2="167.34" gradientTransform="matrix(1, 0.03, 0.03, -1, 1.88, 646.29)" xlink:href="#linear-gradient"></linearGradient>
    <linearGradient id="linear-gradient-4" x1="75.13" y1="333.95" x2="188.72" y2="333.95" gradientTransform="matrix(1, 0.03, 0.03, -1, 1.88, 646.29)" xlink:href="#linear-gradient"></linearGradient>
    <linearGradient id="linear-gradient-5" x1="97.07" y1="198.63" x2="146.73" y2="198.63" gradientTransform="matrix(1, 0.03, 0.03, -1, 1.88, 646.29)" xlink:href="#linear-gradient"></linearGradient>
    <linearGradient id="linear-gradient-6" x1="146.92" y1="218.33" x2="163.88" y2="218.33" gradientTransform="matrix(1, 0.03, 0.03, -1, 1.88, 646.29)" xlink:href="#linear-gradient"></linearGradient>
    <linearGradient id="linear-gradient-7" x1="81.41" y1="233.88" x2="127.4" y2="233.88" gradientTransform="matrix(1, 0.03, 0.03, -1, 1.88, 646.29)" xlink:href="#linear-gradient"></linearGradient>
    <linearGradient id="linear-gradient-8" x1="72.83" y1="271.43" x2="114.02" y2="271.43" gradientTransform="matrix(1, 0.03, 0.03, -1, 1.88, 646.29)" xlink:href="#linear-gradient"></linearGradient>
    <linearGradient id="linear-gradient-9" x1="118.91" y1="276.91" x2="145.72" y2="276.91" gradientTransform="matrix(1, 0.03, 0.03, -1, 1.88, 646.29)" xlink:href="#linear-gradient"></linearGradient>
    <linearGradient id="linear-gradient-10" x1="70.91" y1="309.62" x2="106.63" y2="309.62" gradientTransform="matrix(1, 0.03, 0.03, -1, 1.88, 646.29)" xlink:href="#linear-gradient"></linearGradient>
    <linearGradient id="linear-gradient-11" x1="110.3" y1="341.28" x2="147.48" y2="341.28" gradientTransform="matrix(1, 0.03, 0.03, -1, 1.88, 646.29)" xlink:href="#linear-gradient"></linearGradient>
    <linearGradient id="linear-gradient-12" x1="113.93" y1="373.61" x2="154.88" y2="373.61" gradientTransform="matrix(1, 0.03, 0.03, -1, 1.88, 646.29)" xlink:href="#linear-gradient"></linearGradient>
    <linearGradient id="linear-gradient-13" x1="98.22" y1="421.47" x2="118.09" y2="421.47" gradientTransform="matrix(1, 0.03, 0.03, -1, 1.88, 646.29)" xlink:href="#linear-gradient"></linearGradient>
    <linearGradient id="linear-gradient-14" x1="116.4" y1="455.61" x2="133.47" y2="455.61" gradientTransform="matrix(1, 0.03, 0.03, -1, 1.88, 646.29)" xlink:href="#linear-gradient"></linearGradient>
    <linearGradient id="linear-gradient-15" x1="122.51" y1="405.03" x2="166.32" y2="405.03" gradientTransform="matrix(1, 0.03, 0.03, -1, 1.88, 646.29)" xlink:href="#linear-gradient"></linearGradient>
    <linearGradient id="linear-gradient-16" x1="153.69" y1="461.25" x2="200.36" y2="461.25" gradientTransform="matrix(1, 0.03, 0.03, -1, 1.88, 646.29)" xlink:href="#linear-gradient"></linearGradient>
    <linearGradient id="linear-gradient-17" x1="135.82" y1="434.53" x2="181.59" y2="434.53" gradientTransform="matrix(1, 0.03, 0.03, -1, 1.88, 646.29)" xlink:href="#linear-gradient"></linearGradient>
    <linearGradient id="linear-gradient-18" x1="167.96" y1="499.37" x2="209.41" y2="499.37" gradientTransform="matrix(1, 0.03, 0.03, -1, 1.88, 646.29)" xlink:href="#linear-gradient"></linearGradient>
    <linearGradient id="linear-gradient-19" x1="-238.15" y1="158.2" x2="-186.61" y2="158.2" gradientTransform="translate(345.27 646.29) rotate(178.54)" xlink:href="#linear-gradient"></linearGradient>
    <linearGradient id="linear-gradient-20" x1="-282.91" y1="324.81" x2="-169.31" y2="324.81" gradientTransform="translate(345.27 646.29) rotate(178.54)" xlink:href="#linear-gradient"></linearGradient>
    <linearGradient id="linear-gradient-21" x1="-260.95" y1="189.5" x2="-211.29" y2="189.5" gradientTransform="translate(345.27 646.29) rotate(178.54)" xlink:href="#linear-gradient"></linearGradient>
    <linearGradient id="linear-gradient-22" x1="-211.11" y1="209.2" x2="-194.14" y2="209.2" gradientTransform="translate(345.27 646.29) rotate(178.54)" xlink:href="#linear-gradient"></linearGradient>
    <linearGradient id="linear-gradient-23" x1="-276.61" y1="224.75" x2="-230.63" y2="224.75" gradientTransform="translate(345.27 646.29) rotate(178.54)" xlink:href="#linear-gradient"></linearGradient>
    <linearGradient id="linear-gradient-24" x1="-285.2" y1="262.3" x2="-244" y2="262.3" gradientTransform="translate(345.27 646.29) rotate(178.54)" xlink:href="#linear-gradient"></linearGradient>
    <linearGradient id="linear-gradient-25" x1="-239.12" y1="267.78" x2="-212.3" y2="267.78" gradientTransform="translate(345.27 646.29) rotate(178.54)" xlink:href="#linear-gradient"></linearGradient>
    <linearGradient id="linear-gradient-26" x1="-287.12" y1="300.49" x2="-251.4" y2="300.49" gradientTransform="translate(345.27 646.29) rotate(178.54)" xlink:href="#linear-gradient"></linearGradient>
    <linearGradient id="linear-gradient-27" x1="-247.72" y1="332.15" x2="-210.54" y2="332.15" gradientTransform="translate(345.27 646.29) rotate(178.54)" xlink:href="#linear-gradient"></linearGradient>
    <linearGradient id="linear-gradient-28" x1="-244.09" y1="364.48" x2="-203.14" y2="364.48" gradientTransform="translate(345.27 646.29) rotate(178.54)" xlink:href="#linear-gradient"></linearGradient>
    <linearGradient id="linear-gradient-29" x1="-259.81" y1="412.34" x2="-239.94" y2="412.34" gradientTransform="translate(345.27 646.29) rotate(178.54)" xlink:href="#linear-gradient"></linearGradient>
    <linearGradient id="linear-gradient-30" x1="-241.63" y1="446.48" x2="-224.56" y2="446.48" gradientTransform="translate(345.27 646.29) rotate(178.54)" xlink:href="#linear-gradient"></linearGradient>
    <linearGradient id="linear-gradient-31" x1="-235.52" y1="395.9" x2="-191.7" y2="395.9" gradientTransform="translate(345.27 646.29) rotate(178.54)" xlink:href="#linear-gradient"></linearGradient>
    <linearGradient id="linear-gradient-32" x1="-204.34" y1="452.12" x2="-157.68" y2="452.12" gradientTransform="translate(345.27 646.29) rotate(178.54)" xlink:href="#linear-gradient"></linearGradient>
    <linearGradient id="linear-gradient-33" x1="-222.22" y1="425.4" x2="-176.44" y2="425.4" gradientTransform="translate(345.27 646.29) rotate(178.54)" xlink:href="#linear-gradient"></linearGradient>
    <linearGradient id="linear-gradient-34" x1="-190.07" y1="490.24" x2="-148.62" y2="490.24" gradientTransform="translate(345.27 646.29) rotate(178.54)" xlink:href="#linear-gradient"></linearGradient>
    <linearGradient id="linear-gradient-35" x1="72.75" y1="94.62" x2="187.07" y2="94.62" gradientTransform="matrix(1, 0, 0, -1, -72.75, 591.61)" xlink:href="#linear-gradient"></linearGradient>
    <linearGradient id="linear-gradient-36" x1="150.59" y1="49.49" x2="187.07" y2="49.49" gradientTransform="matrix(1, 0, 0, -1, -72.75, 591.61)" xlink:href="#linear-gradient"></linearGradient>
    <linearGradient id="linear-gradient-37" x1="508.9" y1="94.62" x2="623.22" y2="94.62" gradientTransform="matrix(1, 0, 0, -1, -72.75, 591.61)" xlink:href="#linear-gradient"></linearGradient>
    <linearGradient id="linear-gradient-38" x1="508.9" y1="49.49" x2="545.38" y2="49.49" gradientTransform="matrix(1, 0, 0, -1, -72.75, 591.61)" xlink:href="#linear-gradient"></linearGradient>
    <linearGradient id="linear-gradient-39" x1="150.59" y1="119.89" x2="545.3" y2="119.89" gradientTransform="matrix(1, 0, 0, -1, -72.75, 591.61)" xlink:href="#linear-gradient"></linearGradient>
    <linearGradient id="linear-gradient-40" x1="321" y1="518.11" x2="395.43" y2="518.11" gradientTransform="matrix(1, 0, 0, -1, 0, 648)" xlink:href="#linear-gradient"></linearGradient>
    <linearGradient id="linear-gradient-41" x1="319.16" y1="535.42" x2="397.27" y2="535.42" gradientTransform="matrix(1, 0, 0, -1, -72.75, 591.61)" xlink:href="#linear-gradient"></linearGradient>
    <linearGradient id="linear-gradient-42" x1="306.23" y1="570.24" x2="410.15" y2="570.24" gradientTransform="matrix(1, 0, 0, -1, 0, 648)" xlink:href="#linear-gradient"></linearGradient>
  </defs>
  <circle class="cls-1" cx="282.63" cy="277.81" r="178.11"></circle>
  <circle class="cls-2" cx="282.63" cy="276.51" r="158.96"></circle>
  <path class="cls-3" d="M166.16,489.83a35.66,35.66,0,0,0,11.34-5.64,53.05,53.05,0,0,0-8.59-4.6,50.58,50.58,0,0,0-9.37-3.39c-2.37-.63-4.87-1-7.3-1.46a48.09,48.09,0,0,0-26.14,3,48.61,48.61,0,0,0,8.81,7,51.77,51.77,0,0,0,4.8,2.69,42,42,0,0,0,5.15,1.92A42.79,42.79,0,0,0,152.5,491,33.81,33.81,0,0,0,166.16,489.83Z" transform="translate(-72.75 -56.39)"></path>
  <path class="cls-4" d="M181.11,480.28a48.33,48.33,0,0,0,5.27-11.39,59.24,59.24,0,0,0,2.39-12.45,44,44,0,0,0,.09-6.57c-.07-1.46-.26-2.84-.45-4.24a37.66,37.66,0,0,0-.68-4.12,39.23,39.23,0,0,0-2.58-7.43,36.79,36.79,0,0,0-11,22.11,27,27,0,0,0,0,6.85,39,39,0,0,0,2.23,9.16,39.57,39.57,0,0,0,4.69,8.08c-3.15-3-6.43-5.93-8.56-8.42l-3.7-4-1-1.1a37.81,37.81,0,0,1-2.6-3c-2-2.58-4.87-5.9-7.46-9.41s-5.07-7.12-6.83-9.88l-2.83-4.67-2.83-4.67-5.55-10.66a50.62,50.62,0,0,0,15.89-19.37,45.92,45.92,0,0,0,2.56-6.13,48.77,48.77,0,0,0,1.93-8.24,32.7,32.7,0,0,0,.3-8,37.45,37.45,0,0,0-18.25,16.72,35.52,35.52,0,0,0-2.46,6.4c-1.85,6.15-1.46,12.5,0,18.62-1.77-4-3.54-8-4.86-11l-1.9-5.12s-.76-2.05-1.89-5.13-2.24-7.32-3.53-11.49c-1.13-4.22-2-8.5-2.84-11.69-.39-1.59-.55-3-.74-3.89s-.26-1.48-.26-1.48l-.95-5.39c-.6-3.23-1-7.6-1.54-11.94a49.87,49.87,0,0,0,21.49-13,58.85,58.85,0,0,0,4.39-5,40.29,40.29,0,0,0,4.5-7.36,34.34,34.34,0,0,0,2.92-7.71,40.15,40.15,0,0,0-12,3.1,34.69,34.69,0,0,0-10.65,7.09,36.12,36.12,0,0,0-4.46,5.29,36.89,36.89,0,0,0-2.47,4.08,39.8,39.8,0,0,0-1.76,4.34,35.59,35.59,0,0,0-1.93,9.2h0c-.47-4.35-.62-8.73-.87-12-.14-1.64-.12-3-.13-4s0-1.51,0-1.51,0-2.19-.06-5.47c0-.82,0-1.71,0-2.65s.08-1.93.12-3c.08-2,.17-4.24.26-6.43s.26-4.37.46-6.42.36-3.95.52-5.59.28-3,.44-3.95.21-1.49.21-1.49.31-2.17.78-5.42,1.3-7.56,2.12-11.86c.21-1.08.42-2.15.62-3.21l.74-3.08c.49-2,.95-3.86,1.34-5.46s.7-2.93,1-3.85.43-1.44.43-1.44.63-2.1,1.56-5.25c.49-1.57,1-3.43,1.65-5.37s1.41-4,2.13-6.08c1.37-4.17,3.11-8.19,4.34-11.25.62-1.52,1.13-2.79,1.5-3.68s.61-1.38.61-1.38.92-2,2.31-5l2.37-5.09,3-5.7c1-1.93,2-3.91,3-5.67l2.86-4.83c.84-1.41,1.53-2.59,2-3.42s.78-1.29.78-1.29l3-4.57c.91-1.37,2-3,3.1-4.68s2.51-3.42,3.81-5.19,2.58-3.54,3.85-5.15l3.57-4.33,3.48-4.22,3.7-4,3.8-4.13c1.42-1.48,12.21-11.55,13.45-12.62l4.13-3.58L199.85,150l-4.25,3.67-4.35,3.77c-1.55,1.42-3.13,3-4.75,4.57s-3.25,3.1-4.7,4.62l-3.89,4.23L174.12,175l-3.57,4.32-3.66,4.43c-1.3,1.65-2.6,3.48-3.94,5.27a57.47,57.47,0,0,0,5.74-18.75,51.49,51.49,0,0,0,.6-7.31c0-9.51-2.13-18.22-6.54-25.38a46.1,46.1,0,0,0-8.94,19.75,44,44,0,0,0-.54,7.74,35.52,35.52,0,0,0,9.67,24c-1.32,1.81-2.68,3.59-3.89,5.31l-3.17,4.79c-1.86,2.8-3.09,4.67-3.09,4.67s-.3.47-.8,1.32l-2.07,3.5L147,213.52c-1.07,1.8-2.05,3.83-3.11,5.8s-2.08,4-3.06,5.82l-2.43,5.2L136,235.42s-.26.5-.63,1.41-.9,2.2-1.53,3.76c-1.25,3.12-3,7.23-4.43,11.49-.74,2.11-1.48,4.23-2.18,6.21s-1.19,3.88-1.69,5.48l-1.6,5.37-.44,1.48c-.28.94-.58,2.31-1,3.94l-1.37,5.57c-.25,1-.5,2.08-.76,3.15s-.42,2.18-.64,3.28h0a68.26,68.26,0,0,0-.49-9.67,62.46,62.46,0,0,0-2.24-9.68,51.3,51.3,0,0,0-2.67-6.83,52,52,0,0,0-3.43-6.07A47.19,47.19,0,0,0,107,249a41.75,41.75,0,0,0-9.66-8.36,46,46,0,0,0-.92,10.76,49.08,49.08,0,0,0,1.63,10.53,36,36,0,0,0,2.79,7.14A37.75,37.75,0,0,0,109,279.85a37,37,0,0,0,10.77,6.72c-.84,4.4-1.78,8.78-2.17,12.12s-.79,5.54-.79,5.54l-.22,1.52c-.16,1-.3,2.36-.45,4s-.33,3.63-.53,5.72-.42,4.32-.47,6.56h0a66.46,66.46,0,0,0-1.87-9.5,67.35,67.35,0,0,0-3.59-9.26,51.68,51.68,0,0,0-3.63-6.39,54,54,0,0,0-8.9-10.25,41.87,41.87,0,0,0-10.77-6.92,51.8,51.8,0,0,0,.59,10.8,48.88,48.88,0,0,0,3.15,10.22c.51,1.17,1.07,2.32,1.67,3.43s1.35,2.21,2.09,3.25a36.06,36.06,0,0,0,21.26,14.63c-.09,2.24-.18,4.48-.27,6.58q-.06,1.58-.12,3c0,1,0,1.87,0,2.71,0,3.36.06,5.6.06,5.6s0,.56,0,1.54,0,2.38.14,4.06c.26,3.35.41,7.84.89,12.3s1,8.92,1.57,12.23,1,5.52,1,5.52.1.55.27,1.52.36,2.36.76,4c.8,3.27,1.75,7.66,2.91,12,1.32,4.29,2.52,8.62,3.63,11.8l1.94,5.27,2,5.26,5,11.3,5.71,11c1.75,2.88,2.91,4.81,2.91,4.81l2.91,4.8c1.81,2.84,4.48,6.47,7,10.17s5.6,7,7.68,9.68a40.14,40.14,0,0,0,2.67,3.07l1.05,1.14,3.81,4.13c2.2,2.56,5.56,5.55,8.8,8.66s6.75,5.92,9.33,8.09l4.33,3.57,3.25-4.22-4.21-3.48C187.69,486,184.2,483.38,181.11,480.28Z" transform="translate(-72.75 -56.39)"></path>
  <path class="cls-5" d="M141.8,448.64a49.12,49.12,0,0,0-4.42-2.39,57.74,57.74,0,0,0-6.94-2.79,47.07,47.07,0,0,0-26.23-1.92c4.41,6.18,9.73,11.54,16.28,14.88a42.15,42.15,0,0,0,7.15,3.06,35.4,35.4,0,0,0,25.84-2,48.7,48.7,0,0,0-7.51-6.19C144.57,450.42,143.21,449.51,141.8,448.64Z" transform="translate(-72.75 -56.39)"></path>
  <path class="cls-6" d="M171.15,425.91c.68-5.71.71-11.3-.72-16.21a37.37,37.37,0,0,0-15,19.68,34.25,34.25,0,0,0-1.21,6.71,37.31,37.31,0,0,0-.09,4.73,23,23,0,0,0,.58,4.66,42.4,42.4,0,0,0,3,8.87,51.28,51.28,0,0,0,12-22A47.41,47.41,0,0,0,171.15,425.91Z" transform="translate(-72.75 -56.39)"></path>
  <path class="cls-7" d="M134.92,426.78a59.7,59.7,0,0,0-13.68-14,54.49,54.49,0,0,0-6.27-4,47.13,47.13,0,0,0-25.42-6.56,56.8,56.8,0,0,0,5.6,9.61,42.21,42.21,0,0,0,7.61,7.84,41,41,0,0,0,6.43,4.3A35.61,35.61,0,0,0,134.92,426.78Z" transform="translate(-72.75 -56.39)"></path>
  <path class="cls-8" d="M114.64,380.72q-1.52-2-3.25-3.78a52.42,52.42,0,0,0-5.46-5C98.6,366,90.42,362.26,82,361.28a56.5,56.5,0,0,0,3.85,10.3A45.13,45.13,0,0,0,92,380.52a36.47,36.47,0,0,0,5.6,5.3,35.71,35.71,0,0,0,24.81,7.34,55.65,55.65,0,0,0-4.75-8.46C116.73,383.33,115.68,382,114.64,380.72Z" transform="translate(-72.75 -56.39)"></path>
  <path class="cls-9" d="M146.61,375.44a51.83,51.83,0,0,0,3.55-5.64,43.47,43.47,0,0,0,3.29-7.89,33.43,33.43,0,0,0,1.66-8,37.58,37.58,0,0,0-20.8,13.51,35.16,35.16,0,0,0-3.54,5.91,38.54,38.54,0,0,0-1.79,4.42,32.68,32.68,0,0,0-1,4.56,38.27,38.27,0,0,0-.4,9.38A50.33,50.33,0,0,0,146.61,375.44Z" transform="translate(-72.75 -56.39)"></path>
  <path class="cls-10" d="M88,340.54a35.22,35.22,0,0,0,4.69,6.08,35.84,35.84,0,0,0,23.25,11.26,61.29,61.29,0,0,0-3.29-9.11c-.7-1.49-1.47-2.95-2.33-4.39s-1.65-2.86-2.61-4.24a53.57,53.57,0,0,0-4.57-5.8,54.3,54.3,0,0,0-10.29-8.86,42,42,0,0,0-11.68-5.3,54.77,54.77,0,0,0,2.17,10.66A48.45,48.45,0,0,0,88,340.54Z" transform="translate(-72.75 -56.39)"></path>
  <path class="cls-11" d="M146.31,310.62c.87-.73,1.69-1.48,2.48-2.24a39,39,0,0,0,5.57-6.67,38.21,38.21,0,0,0,4-7.26A40.83,40.83,0,0,0,146,295.78a34.45,34.45,0,0,0-11.57,5.48,36.9,36.9,0,0,0-5.22,4.58,32.6,32.6,0,0,0-5.45,7.71,34.39,34.39,0,0,0-3.31,8.81,49.37,49.37,0,0,0,23.23-9.61C144.62,312.07,145.48,311.35,146.31,310.62Z" transform="translate(-72.75 -56.39)"></path>
  <path class="cls-12" d="M149.38,281.45a57.58,57.58,0,0,0,5.63-3.62,40,40,0,0,0,6.51-5.83,42.05,42.05,0,0,0,5-6.64,40.8,40.8,0,0,0-12.44-.43,37.29,37.29,0,0,0-6.26,1.31,36,36,0,0,0-6,2.49,37.56,37.56,0,0,0-5.85,3.79,33.94,33.94,0,0,0-6.48,6.86,33.54,33.54,0,0,0-4.54,8.24,46.87,46.87,0,0,0,12.43-1.47A48.49,48.49,0,0,0,149.38,281.45Z" transform="translate(-72.75 -56.39)"></path>
  <path class="cls-13" d="M130.3,242.44a55.77,55.77,0,0,0-.86-9.91,51.76,51.76,0,0,0-1.65-7.14c-2.91-9-7.58-16.58-14-22a45.73,45.73,0,0,0-2.36,21.2,38.32,38.32,0,0,0,1.78,7.47,35.92,35.92,0,0,0,16.27,20c.27-1.58.46-3.18.58-4.8A48.38,48.38,0,0,0,130.3,242.44Z" transform="translate(-72.75 -56.39)"></path>
  <path class="cls-14" d="M146.1,209.9a51.1,51.1,0,0,0,.57-9.94,52,52,0,0,0-.57-7.3c-1.53-9.37-5-17.57-10.58-23.91A45.93,45.93,0,0,0,130,189.48a41.78,41.78,0,0,0,.68,7.68,36.23,36.23,0,0,0,4.76,12.69,37.19,37.19,0,0,0,8.44,9.48,47.89,47.89,0,0,0,1.27-4.67C145.48,213.07,145.86,211.52,146.1,209.9Z" transform="translate(-72.75 -56.39)"></path>
  <path class="cls-15" d="M153.81,237.56a38,38,0,0,0-6.34,2.91,36.49,36.49,0,0,0-7.38,5.88,30.57,30.57,0,0,0-5.65,7.52,45.88,45.88,0,0,0,12.5.29,50.08,50.08,0,0,0,12.51-3,49.39,49.39,0,0,0,6.06-2.8,43,43,0,0,0,13.17-10.66A37.65,37.65,0,0,0,153.81,237.56Z" transform="translate(-72.75 -56.39)"></path>
  <path class="cls-16" d="M191.86,197a42.16,42.16,0,0,0,6.54-.84,42.63,42.63,0,0,0,15.54-5.89c-6.59-5-14.74-8.23-23.49-7.9a37.19,37.19,0,0,0-6.92.84,36.17,36.17,0,0,0-16.32,9A50.5,50.5,0,0,0,191.86,197Z" transform="translate(-72.75 -56.39)"></path>
  <path class="cls-17" d="M194.6,212.45a36.77,36.77,0,0,0-31.24-2,38.52,38.52,0,0,0-8.13,4.75,33.1,33.1,0,0,0-3.59,3.08,45.15,45.15,0,0,0-3.07,3.55,46.3,46.3,0,0,0,12.34,2.09,52.18,52.18,0,0,0,12.78-1.11,44.12,44.12,0,0,0,6.37-1.88A42.69,42.69,0,0,0,194.6,212.45Z" transform="translate(-72.75 -56.39)"></path>
  <path class="cls-18" d="M208.85,156.32a50.4,50.4,0,0,0,5.5-5.79,51.43,51.43,0,0,0,10.1-17.38c-10,.35-20.12,3.52-28.09,10.51a45.29,45.29,0,0,0-5.86,6.06A43.86,43.86,0,0,0,182,170.61,61,61,0,0,0,208.85,156.32Z" transform="translate(-72.75 -56.39)"></path>
  <path class="cls-19" d="M539.15,489.83a35.66,35.66,0,0,1-11.34-5.64,53.05,53.05,0,0,1,8.59-4.6,50.84,50.84,0,0,1,9.37-3.39c2.37-.63,4.87-1,7.3-1.46a48.09,48.09,0,0,1,26.14,3,48.61,48.61,0,0,1-8.81,7,51.77,51.77,0,0,1-4.8,2.69,42,42,0,0,1-5.15,1.92,42.79,42.79,0,0,1-7.64,1.61A33.77,33.77,0,0,1,539.15,489.83Z" transform="translate(-72.75 -56.39)"></path>
  <path class="cls-20" d="M524.19,480.28a48.33,48.33,0,0,1-5.27-11.39,59.24,59.24,0,0,1-2.39-12.45,44,44,0,0,1-.09-6.57c.07-1.46.26-2.84.45-4.24a37.66,37.66,0,0,1,.68-4.12,39.23,39.23,0,0,1,2.58-7.43,36.79,36.79,0,0,1,11,22.11,27,27,0,0,1,0,6.85,32.8,32.8,0,0,1-6.92,17.24c3.15-3,6.43-5.93,8.56-8.42l3.7-4,1-1.1a37.81,37.81,0,0,0,2.6-3c2-2.58,4.87-5.9,7.46-9.41s5.07-7.12,6.83-9.88l2.83-4.67,2.83-4.67,5.55-10.66a50.62,50.62,0,0,1-15.89-19.37,45.92,45.92,0,0,1-2.56-6.13,48.77,48.77,0,0,1-1.93-8.24,32.7,32.7,0,0,1-.3-8,37.45,37.45,0,0,1,18.25,16.72,35.52,35.52,0,0,1,2.46,6.4c1.85,6.15,1.46,12.5,0,18.62,1.77-4,3.54-8,4.86-11l1.9-5.12s.76-2.05,1.89-5.13,2.24-7.32,3.53-11.49c1.13-4.22,2-8.5,2.84-11.69.39-1.59.55-3,.74-3.89s.26-1.48.26-1.48l.95-5.39c.6-3.23,1-7.6,1.54-11.94a49.87,49.87,0,0,1-21.49-13,58.85,58.85,0,0,1-4.39-5,40.29,40.29,0,0,1-4.5-7.36,34.34,34.34,0,0,1-2.92-7.71,40.15,40.15,0,0,1,12,3.1,34.85,34.85,0,0,1,10.66,7.09,36.12,36.12,0,0,1,4.46,5.29,36.89,36.89,0,0,1,2.47,4.08,39.8,39.8,0,0,1,1.76,4.34,35.59,35.59,0,0,1,1.93,9.2h0c.47-4.35.62-8.73.87-12,.14-1.64.12-3,.13-4s0-1.51,0-1.51,0-2.19.06-5.47c0-.82,0-1.71,0-2.65s-.08-1.93-.12-3c-.08-2-.17-4.24-.26-6.43s-.26-4.37-.46-6.42-.36-3.95-.52-5.59-.28-3-.44-3.95-.21-1.49-.21-1.49-.31-2.17-.78-5.42-1.3-7.56-2.12-11.86c-.21-1.08-.42-2.15-.62-3.21l-.74-3.08c-.49-2-.95-3.86-1.34-5.46s-.7-2.93-1-3.85-.43-1.44-.43-1.44-.63-2.1-1.56-5.25c-.49-1.57-1-3.43-1.65-5.37s-1.41-4-2.13-6.08c-1.37-4.17-3.11-8.19-4.34-11.25-.62-1.52-1.13-2.79-1.5-3.68s-.61-1.38-.61-1.38-.92-2-2.31-5l-2.37-5.09-3-5.7c-1-1.93-2-3.91-3-5.67l-2.86-4.83c-.84-1.41-1.53-2.59-2-3.42s-.78-1.29-.78-1.29L545,202c-.91-1.37-2-3-3.1-4.68s-2.51-3.42-3.81-5.19-2.58-3.54-3.85-5.15l-3.57-4.33-3.48-4.22-3.7-4-3.8-4.13c-1.42-1.48-12.21-11.55-13.45-12.62l-4.13-3.58,3.37-4.13,4.25,3.67,4.35,3.77c1.55,1.42,3.13,3,4.75,4.57s3.25,3.1,4.7,4.62l3.89,4.23,3.79,4.13,3.57,4.32,3.66,4.43c1.3,1.65,2.6,3.48,3.94,5.27a57.47,57.47,0,0,1-5.74-18.75,51.49,51.49,0,0,1-.6-7.31c0-9.51,2.13-18.22,6.54-25.38a46.1,46.1,0,0,1,8.94,19.75A44,44,0,0,1,552,165a35.52,35.52,0,0,1-9.67,24c1.32,1.81,2.68,3.59,3.89,5.31l3.17,4.79c1.86,2.8,3.09,4.67,3.09,4.67s.3.47.8,1.32l2.07,3.5,2.92,4.94c1.07,1.8,2.05,3.83,3.11,5.8s2.08,4,3.06,5.82l2.43,5.2,2.36,5.08s.26.5.63,1.41.9,2.2,1.53,3.76c1.25,3.12,3,7.23,4.43,11.49.74,2.11,1.48,4.23,2.18,6.21s1.19,3.88,1.69,5.48l1.6,5.37.44,1.48c.28.94.58,2.31,1,3.94l1.37,5.57c.25,1,.5,2.08.76,3.15s.42,2.18.64,3.28h0a68.26,68.26,0,0,1,.49-9.67,62.46,62.46,0,0,1,2.24-9.68,51.3,51.3,0,0,1,2.67-6.83,52,52,0,0,1,3.43-6.07A47.19,47.19,0,0,1,598.3,249a41.75,41.75,0,0,1,9.66-8.36,46,46,0,0,1,.92,10.76,49.08,49.08,0,0,1-1.63,10.53,36,36,0,0,1-2.79,7.14,37.75,37.75,0,0,1-8.16,10.81,37,37,0,0,1-10.77,6.72c.84,4.4,1.78,8.78,2.17,12.12s.79,5.54.79,5.54l.22,1.52c.16,1,.3,2.36.45,4s.33,3.63.53,5.72.42,4.32.47,6.56h0a66.46,66.46,0,0,1,1.87-9.5,67.35,67.35,0,0,1,3.59-9.26,51.68,51.68,0,0,1,3.63-6.39,54,54,0,0,1,8.9-10.25,41.87,41.87,0,0,1,10.77-6.92,51.8,51.8,0,0,1-.59,10.8,48.88,48.88,0,0,1-3.15,10.22c-.51,1.17-1.07,2.32-1.67,3.43s-1.35,2.21-2.09,3.25a36.06,36.06,0,0,1-21.26,14.63c.09,2.24.18,4.48.27,6.58q.06,1.58.12,3c0,1,0,1.87,0,2.71,0,3.36-.06,5.6-.06,5.6s0,.56,0,1.54,0,2.38-.14,4.06c-.26,3.35-.41,7.84-.89,12.3s-1,8.92-1.57,12.23-1,5.52-1,5.52-.1.55-.27,1.52-.36,2.36-.76,4c-.8,3.27-1.75,7.66-2.91,12-1.32,4.29-2.52,8.62-3.63,11.8l-1.94,5.27-2,5.26-5,11.3-5.71,11c-1.75,2.88-2.91,4.81-2.91,4.81l-2.91,4.8c-1.81,2.84-4.48,6.47-7,10.17s-5.6,7-7.68,9.68a40.14,40.14,0,0,1-2.67,3.07l-1,1.14-3.81,4.13c-2.2,2.56-5.56,5.55-8.8,8.66s-6.75,5.92-9.33,8.09l-4.33,3.57-3.25-4.22,4.21-3.48C517.62,486,521.1,483.38,524.19,480.28Z" transform="translate(-72.75 -56.39)"></path>
  <path class="cls-21" d="M563.5,448.64a49.12,49.12,0,0,1,4.42-2.39,57.74,57.74,0,0,1,6.94-2.79,47.07,47.07,0,0,1,26.23-1.92c-4.41,6.18-9.73,11.54-16.28,14.88a42.15,42.15,0,0,1-7.15,3.06,35.4,35.4,0,0,1-25.84-2,48.7,48.7,0,0,1,7.51-6.19C560.74,450.42,562.09,449.51,563.5,448.64Z" transform="translate(-72.75 -56.39)"></path>
  <path class="cls-22" d="M534.15,425.91c-.68-5.71-.71-11.3.72-16.21a37.37,37.37,0,0,1,15,19.68,34.25,34.25,0,0,1,1.21,6.71,37.31,37.31,0,0,1,.09,4.73,23,23,0,0,1-.58,4.66,42.4,42.4,0,0,1-3,8.87,51.28,51.28,0,0,1-12-22A47.41,47.41,0,0,1,534.15,425.91Z" transform="translate(-72.75 -56.39)"></path>
  <path class="cls-23" d="M570.38,426.78a59.7,59.7,0,0,1,13.68-14,54.49,54.49,0,0,1,6.27-4,47.13,47.13,0,0,1,25.42-6.56,56.8,56.8,0,0,1-5.6,9.61,42.21,42.21,0,0,1-7.61,7.84,41,41,0,0,1-6.43,4.3A35.6,35.6,0,0,1,570.38,426.78Z" transform="translate(-72.75 -56.39)"></path>
  <path class="cls-24" d="M590.66,380.72q1.51-2,3.25-3.78a52.42,52.42,0,0,1,5.46-5c7.33-5.94,15.51-9.67,23.93-10.65a56.5,56.5,0,0,1-3.85,10.3,45.13,45.13,0,0,1-6.14,8.94,36.47,36.47,0,0,1-5.6,5.3,35.71,35.71,0,0,1-24.81,7.34,55.65,55.65,0,0,1,4.75-8.46C588.57,383.33,589.62,382,590.66,380.72Z" transform="translate(-72.75 -56.39)"></path>
  <path class="cls-25" d="M558.69,375.44a51.83,51.83,0,0,1-3.55-5.64,43.47,43.47,0,0,1-3.29-7.89,33.43,33.43,0,0,1-1.66-8A37.58,37.58,0,0,1,571,367.46a35.16,35.16,0,0,1,3.54,5.91,40.44,40.44,0,0,1,1.79,4.42,32.68,32.68,0,0,1,1,4.56,38.27,38.27,0,0,1,.4,9.38A50.41,50.41,0,0,1,558.69,375.44Z" transform="translate(-72.75 -56.39)"></path>
  <path class="cls-26" d="M617.34,340.54a35.22,35.22,0,0,1-4.69,6.08,35.84,35.84,0,0,1-23.25,11.26,61.29,61.29,0,0,1,3.29-9.11c.7-1.49,1.47-2.95,2.33-4.39s1.65-2.86,2.61-4.24a53.57,53.57,0,0,1,4.57-5.8,54.3,54.3,0,0,1,10.29-8.86,42,42,0,0,1,11.68-5.3A54.77,54.77,0,0,1,622,330.84,48.45,48.45,0,0,1,617.34,340.54Z" transform="translate(-72.75 -56.39)"></path>
  <path class="cls-27" d="M559,310.62c-.87-.73-1.69-1.48-2.48-2.24a39,39,0,0,1-5.57-6.67,38.21,38.21,0,0,1-4-7.26,40.83,40.83,0,0,1,12.36,1.33,34.45,34.45,0,0,1,11.57,5.48,36.9,36.9,0,0,1,5.22,4.58,32.6,32.6,0,0,1,5.45,7.71,34.39,34.39,0,0,1,3.31,8.81,49.37,49.37,0,0,1-23.23-9.61C560.68,312.07,559.82,311.35,559,310.62Z" transform="translate(-72.75 -56.39)"></path>
  <path class="cls-28" d="M555.92,281.45a57.58,57.58,0,0,1-5.63-3.62,40,40,0,0,1-6.51-5.83,42.05,42.05,0,0,1-5-6.64,40.8,40.8,0,0,1,12.44-.43,37.29,37.29,0,0,1,6.26,1.31,36,36,0,0,1,6,2.49,37.56,37.56,0,0,1,5.85,3.79,33.94,33.94,0,0,1,6.48,6.86,33.54,33.54,0,0,1,4.54,8.24,46.87,46.87,0,0,1-12.43-1.47A48.49,48.49,0,0,1,555.92,281.45Z" transform="translate(-72.75 -56.39)"></path>
  <path class="cls-29" d="M575,242.44a55.77,55.77,0,0,1,.86-9.91,51.76,51.76,0,0,1,1.65-7.14c2.91-9,7.58-16.58,14-22a45.73,45.73,0,0,1,2.36,21.2,38.32,38.32,0,0,1-1.78,7.47,35.92,35.92,0,0,1-16.27,20c-.27-1.58-.46-3.18-.58-4.8A48.38,48.38,0,0,1,575,242.44Z" transform="translate(-72.75 -56.39)"></path>
  <path class="cls-30" d="M559.2,209.9a51.1,51.1,0,0,1-.57-9.94,52,52,0,0,1,.57-7.3c1.53-9.37,5-17.57,10.58-23.91a45.93,45.93,0,0,1,5.55,20.73,41.78,41.78,0,0,1-.68,7.68,36.23,36.23,0,0,1-4.76,12.69,37.19,37.19,0,0,1-8.44,9.48,47.89,47.89,0,0,1-1.27-4.67C559.82,213.07,559.44,211.52,559.2,209.9Z" transform="translate(-72.75 -56.39)"></path>
  <path class="cls-31" d="M551.49,237.56a38,38,0,0,1,6.34,2.91,36.49,36.49,0,0,1,7.38,5.88,30.57,30.57,0,0,1,5.65,7.52,45.88,45.88,0,0,1-12.5.29,50.08,50.08,0,0,1-12.51-3,49.39,49.39,0,0,1-6.06-2.8,43,43,0,0,1-13.17-10.66A37.65,37.65,0,0,1,551.49,237.56Z" transform="translate(-72.75 -56.39)"></path>
  <path class="cls-32" d="M513.45,197a42.16,42.16,0,0,1-6.54-.84,42.63,42.63,0,0,1-15.54-5.89c6.59-5,14.74-8.23,23.49-7.9a37.19,37.19,0,0,1,6.92.84,36.17,36.17,0,0,1,16.32,9A50.55,50.55,0,0,1,513.45,197Z" transform="translate(-72.75 -56.39)"></path>
  <path class="cls-33" d="M510.71,212.45a36.77,36.77,0,0,1,31.24-2,38.52,38.52,0,0,1,8.13,4.75,33.1,33.1,0,0,1,3.59,3.08,45.15,45.15,0,0,1,3.07,3.55,46.3,46.3,0,0,1-12.34,2.09,52.18,52.18,0,0,1-12.78-1.11,44.12,44.12,0,0,1-6.37-1.88A42.5,42.5,0,0,1,510.71,212.45Z" transform="translate(-72.75 -56.39)"></path>
  <path class="cls-34" d="M496.45,156.32a50.4,50.4,0,0,1-5.5-5.79,51.43,51.43,0,0,1-10.1-17.38c10,.35,20.12,3.52,28.09,10.51a45.29,45.29,0,0,1,5.86,6.06,43.86,43.86,0,0,1,8.47,20.89A61,61,0,0,1,496.45,156.32Z" transform="translate(-72.75 -56.39)"></path>
  <polygon class="cls-35" points="114.32 554.75 0 554.75 33.99 496.99 0 439.23 114.32 439.23 114.32 554.75"></polygon>
  <polygon class="cls-36" points="77.84 529.48 114.32 554.75 114.32 529.48 77.84 529.48"></polygon>
  <polygon class="cls-37" points="436.15 554.75 550.47 554.75 516.48 496.99 550.47 439.23 436.15 439.23 436.15 554.75"></polygon>
  <polygon class="cls-38" points="472.63 529.48 436.15 554.75 436.15 529.48 472.63 529.48"></polygon>
  <rect class="cls-39" x="77.84" y="413.96" width="394.71" height="115.52"></rect>
  <path class="cls-40" d="M391.56,126H324.87a3.87,3.87,0,0,0,0,7.74h66.69a3.87,3.87,0,1,0,0-7.74Z" transform="translate(-72.75 -56.39)"></path>
  <polygon class="cls-41" points="246.41 45.5 250.83 66.87 285.47 66.87 320.1 66.87 324.52 45.5 285.47 45.5 246.41 45.5"></polygon>
  <path class="cls-42" d="M405,64.49a5.16,5.16,0,0,0-2.88,9.44c-4.45,6.45-12.84,17.93-16.28,18.2s-5.42-15-6.21-23.23a5.17,5.17,0,1,0-1.8-.17c-2.27,8-6.8,23-8.95,23s-7-16.66-9.36-25.23a5.16,5.16,0,1,0-2.66,0c-2.34,8.58-7.17,25.23-9.36,25.23s-6.68-15-8.95-23a5.15,5.15,0,1,0-1.8.17c-.78,8.25-2.71,23.5-6.21,23.23s-11.83-11.75-16.28-18.2a5.17,5.17,0,1,0-1.57.71l6.43,24.49h78.12l6.43-24.49A5.16,5.16,0,1,0,405,64.49Z" transform="translate(-72.75 -56.39)"></path>
  <g class="cls-43">
    <path d="M303.5,398.83l-12.93,25v12.35h-9.1V423.83l-12.93-25h10.32l7.24,15.64,7.18-15.64Z" transform="translate(-72.75 -56.39)"></path>
    <path d="M316.27,406.11v7.56h12.18v7H316.27v8.2h13.78v7.29H307.17V398.83h22.88v7.28Z" transform="translate(-72.75 -56.39)"></path>
    <path d="M359.21,429.58H345.27l-2.24,6.6h-9.52L347,398.83h10.54l13.52,37.35h-9.64Zm-2.34-7-4.63-13.68-4.58,13.68Z" transform="translate(-72.75 -56.39)"></path>
    <path d="M394.22,436.18l-7.77-14.1h-2.18v14.1h-9.1V398.83h15.27a16.77,16.77,0,0,1,7.53,1.54,10.64,10.64,0,0,1,4.66,4.23,11.76,11.76,0,0,1,1.54,6,11.13,11.13,0,0,1-2.1,6.66,11.34,11.34,0,0,1-6.2,4.15l8.62,14.79Zm-10-20.54h5.64a5.17,5.17,0,0,0,3.75-1.22,4.6,4.6,0,0,0,1.25-3.46,4.47,4.47,0,0,0-1.25-3.36,5.17,5.17,0,0,0-3.75-1.22h-5.64Z" transform="translate(-72.75 -56.39)"></path>
    <path d="M416,435.22a11.93,11.93,0,0,1-5.19-3.94A10.69,10.69,0,0,1,408.8,425h9.69a4.71,4.71,0,0,0,1.43,3.17,4.62,4.62,0,0,0,3.2,1.09,5,5,0,0,0,3.19-.93,3.11,3.11,0,0,0,1.17-2.58,3.06,3.06,0,0,0-.93-2.29,7.62,7.62,0,0,0-2.29-1.49,38,38,0,0,0-3.86-1.33,41.79,41.79,0,0,1-5.9-2.23,11,11,0,0,1-3.94-3.3,9.22,9.22,0,0,1-1.65-5.7,9.77,9.77,0,0,1,3.78-8.16,15.5,15.5,0,0,1,9.84-3q6.17,0,10,3a10.53,10.53,0,0,1,4,8.22h-9.84a3.83,3.83,0,0,0-1.33-2.85,4.7,4.7,0,0,0-3.14-1,3.93,3.93,0,0,0-2.66.88,3.19,3.19,0,0,0-1,2.53,3.15,3.15,0,0,0,1.7,2.82,28.36,28.36,0,0,0,5.32,2.18,51.16,51.16,0,0,1,5.88,2.34,11.23,11.23,0,0,1,3.91,3.25,8.68,8.68,0,0,1,1.65,5.48,10.77,10.77,0,0,1-1.62,5.8,11.34,11.34,0,0,1-4.71,4.15,16.12,16.12,0,0,1-7.29,1.54A19.13,19.13,0,0,1,416,435.22Z" transform="translate(-72.75 -56.39)"></path>
  </g>
  <g class="cls-43">
    <path d="M180.82,507.54V544.9h-9.1V507.54Z" transform="translate(-72.75 -56.39)"></path>
    <path d="M220.83,544.9h-9.1l-15.22-23v23h-9.1V507.54h9.1l15.22,23.15V507.54h9.1Z" transform="translate(-72.75 -56.39)"></path>
    <path d="M247.81,514.83v7.56H260v7H247.81v8.2h13.78v7.29H238.71V507.54h22.88v7.29Z" transform="translate(-72.75 -56.39)"></path>
    <path d="M290.38,544.9l-7.61-11.44-6.71,11.44H265.74l12-19-12.24-18.36h10.59l7.5,11.29,6.6-11.29h10.33l-11.87,18.84L301,544.9Z" transform="translate(-72.75 -56.39)"></path>
    <path d="M314.64,514.83v7.56h12.18v7H314.64v8.2h13.78v7.29H305.54V507.54h22.88v7.29Z" transform="translate(-72.75 -56.39)"></path>
    <path d="M343.43,537.88h11.91v7h-21V507.54h9.1Z" transform="translate(-72.75 -56.39)"></path>
    <path d="M368.81,537.88h11.92v7h-21V507.54h9.1Z" transform="translate(-72.75 -56.39)"></path>
    <path d="M394.19,514.83v7.56h12.18v7H394.19v8.2H408v7.29H385.09V507.54H408v7.29Z" transform="translate(-72.75 -56.39)"></path>
    <path d="M447.29,544.9h-9.1l-15.22-23v23h-9.09V507.54H423l15.22,23.15V507.54h9.1Z" transform="translate(-72.75 -56.39)"></path>
    <path d="M454.74,516.3a17.1,17.1,0,0,1,6.68-6.76,19.41,19.41,0,0,1,9.71-2.42,18.61,18.61,0,0,1,11.39,3.51,16.94,16.94,0,0,1,6.33,9.58h-10a8.11,8.11,0,0,0-3.16-3.57,9,9,0,0,0-4.66-1.22,8.7,8.7,0,0,0-6.81,2.93,13,13,0,0,0,0,15.64,8.7,8.7,0,0,0,6.81,2.93,8.89,8.89,0,0,0,4.66-1.23,8,8,0,0,0,3.16-3.56h10a16.8,16.8,0,0,1-6.33,9.55,18.72,18.72,0,0,1-11.39,3.48,19.3,19.3,0,0,1-9.71-2.42,17.09,17.09,0,0,1-6.68-6.73,21.51,21.51,0,0,1,0-19.71Z" transform="translate(-72.75 -56.39)"></path>
    <path d="M503.54,514.83v7.56h12.18v7H503.54v8.2h13.78v7.29H494.44V507.54h22.88v7.29Z" transform="translate(-72.75 -56.39)"></path>
  </g>
  <path d="M316,226.14q13.56-11.28,35.7-11.28,15.12,0,25.88,5.28a37,37,0,0,1,21.74,34.67q0,13-6.73,22t-16,12.11v.83A34.84,34.84,0,0,1,395.26,303q6.72,9.52,6.73,24.43a43,43,0,0,1-5.7,22.15,38.76,38.76,0,0,1-16.76,15.21q-11.08,5.49-26.6,5.49-23.4,0-38.09-11.8t-15.53-34.78h28.16q.4,10.14,6.93,16.25t17.91,6.11q10.54,0,16.25-5.9T374.25,325q0-12.42-7.87-17.8T342,301.8h-6V278h6q29.39,0,29.39-19.66,0-8.89-5.28-13.87t-15.21-5q-9.74,0-15,5.28a21.32,21.32,0,0,0-6.11,13.35H301.38Q302.41,237.42,316,226.14Z" transform="translate(-72.75 -56.39)"></path>
</svg>
