<?xml version="1.0" encoding="UTF-8"?>
<svg xmlns="http://www.w3.org/2000/svg" xmlns:xlink="http://www.w3.org/1999/xlink" version="1.1" id="Layer_1" x="0px" y="0px" width="100%" viewBox="0 0 261 265" xml:space="preserve">
<path fill="#FFFEFE" opacity="1.000000" stroke="none" d=" M1.000000,94.000000   C1.000000,62.666676 1.000000,31.833347 1.000000,1.000016   C87.999969,1.000011 174.999939,1.000011 261.999939,1.000005   C261.999939,89.333282 261.999939,177.666565 261.999969,265.999878   C175.000076,265.999939 88.000137,265.999939 1.000105,265.999969   C1.000000,208.833328 1.000000,151.666672 1.000000,94.000000  M32.643173,205.876297   C65.480431,246.967651 107.983391,263.336548 159.228821,251.880157   C222.846176,237.657883 262.464447,176.969315 252.209213,112.524750   C237.888489,22.532469 130.460129,-20.856880 57.928104,34.056366   C3.576016,75.205780 -7.490836,148.826355 32.643173,205.876297  z"></path>
<path fill="#F81617" opacity="1.000000" stroke="none" d=" M32.412743,205.601349   C-7.490836,148.826355 3.576016,75.205780 57.928104,34.056366   C130.460129,-20.856880 237.888489,22.532469 252.209213,112.524750   C262.464447,176.969315 222.846176,237.657883 159.228821,251.880157   C107.983391,263.336548 65.480431,246.967651 32.412743,205.601349  M79.816566,84.216019   C79.220261,83.660919 78.623955,83.105820 77.807335,82.130424   C77.306564,81.752060 76.805786,81.373703 75.978477,80.383331   C65.973709,70.427124 55.968941,60.470924 45.499207,50.052017   C15.694857,83.642670 4.747247,122.013443 17.208803,164.946518   C30.910315,212.151550 63.420708,240.938217 111.758995,249.554474   C150.428406,256.447266 184.518387,244.970078 213.740112,218.057098   C202.632874,206.965271 192.050308,196.378891 181.420761,185.839859   C180.914581,185.337982 179.992752,185.255295 178.953842,184.366318   C177.966705,183.142410 176.979553,181.918503 175.610016,180.140564   C174.303619,178.850906 172.997238,177.561249 171.362198,175.852859   C170.136627,174.641510 168.911041,173.430145 167.217606,171.639328   C152.101913,156.563492 136.986221,141.487671 121.486473,125.977142   C120.649513,125.171562 119.812553,124.365982 118.617142,123.030838   C116.619148,120.648499 114.575607,118.350815 111.039711,118.954735   C111.039711,118.954735 111.079140,119.001045 110.950790,118.244820   C109.288391,115.684883 107.625992,113.124954 105.597473,110.109016   C104.452942,109.058624 103.308411,108.008240 102.143486,106.800301   C102.143486,106.800301 101.951492,106.551659 101.403984,105.969482   C97.665878,102.614792 93.927773,99.260094 89.884216,95.300957   C88.891380,94.389511 87.898544,93.478073 86.506516,92.047485   C84.462387,89.718163 82.418251,87.388832 80.276176,84.936859   C80.276176,84.936859 80.003441,84.795799 79.816566,84.216019  M80.903671,79.510841   C83.855247,82.378548 86.806824,85.246254 90.014038,88.670914   C90.910286,89.494049 91.806534,90.317192 92.967979,91.618294   C93.270653,91.816635 93.573326,92.014969 94.203613,92.769989   C95.462120,93.937164 96.720627,95.104332 98.303558,96.828445   C107.696190,106.262657 117.080734,115.704941 126.483467,125.129074   C138.923218,137.597137 151.341736,150.086884 163.864487,162.471130   C165.678848,164.265411 168.305496,165.252457 170.066254,167.084076   C174.857529,172.068192 179.386093,177.304855 184.393860,182.942276   C186.922775,185.048508 189.451691,187.154724 192.323563,189.840698   C200.253250,198.329575 208.182938,206.818451 216.128128,215.323914   C259.387207,171.404816 263.280914,96.383171 214.631546,48.281002   C165.184814,-0.609558 90.053032,5.809060 49.528053,46.840584   C58.615658,56.274120 67.701363,65.705681 77.079773,75.660683   C78.205635,76.757172 79.331497,77.853653 80.903671,79.510841  z"></path>
<path fill="#FDFCFC" opacity="1.000000" stroke="none" d=" M184.018768,182.441452   C179.386093,177.304855 174.857529,172.068192 170.066254,167.084076   C168.305496,165.252457 165.678848,164.265411 163.864487,162.471130   C151.341736,150.086884 138.923218,137.597137 126.483467,125.129074   C117.080734,115.704941 107.696190,106.262657 98.560257,96.481903   C105.082848,95.926178 106.364494,94.610359 105.793533,88.428009   C105.681854,87.218819 104.613792,86.097954 103.986839,84.936356   C103.270142,86.153282 102.387100,87.306763 101.890915,88.607788   C101.513672,89.596916 101.628189,90.773590 101.490860,92.213303   C98.781250,92.213303 96.328621,92.213303 93.875999,92.213303   C93.573326,92.014969 93.270653,91.816635 93.015854,91.072113   C95.864372,87.687279 98.594254,84.773964 101.486931,82.032410   C104.028931,79.623207 106.523148,78.407402 109.256119,82.203682   C110.035400,83.286148 112.330963,83.277016 113.942581,83.738716   C113.953957,83.708984 114.095810,83.720886 114.711327,83.876877   C115.688446,83.812767 116.050041,83.592659 116.685333,83.642944   C124.973778,83.962540 132.988525,84.011742 141.399902,84.151222   C143.063705,83.954834 144.992645,84.089836 145.488449,83.311691   C148.280380,78.929939 152.517303,80.028107 156.472122,79.996735   C160.113434,79.967834 163.755386,80.022453 167.471420,80.503784   C167.632126,95.346199 167.718475,109.725113 167.661682,124.393845   C167.613739,125.092491 167.708923,125.501312 167.705780,126.317337   C167.687332,127.829552 167.767181,128.934570 167.804245,130.349792   C168.188629,131.015656 168.615829,131.371307 169.371750,131.806458   C170.178024,131.247437 170.655548,130.608917 171.284149,129.540588   C171.336716,126.093163 171.238251,123.075508 171.232422,119.592957   C171.262146,106.730797 171.199219,94.333534 171.270752,81.517853   C171.960648,77.101685 170.150894,75.769897 166.252884,75.971069   C161.268723,76.228302 156.256836,75.906326 151.265442,76.079842   C148.051270,76.191582 147.705566,74.723328 148.509827,71.865028   C154.517563,71.865028 160.488770,71.848991 166.459824,71.869270   C173.225998,71.892250 174.810730,73.263939 175.871658,80.459694   C175.850708,97.282326 175.910980,113.642120 175.873383,130.416641   C175.889420,132.219467 176.003311,133.607590 176.117218,134.995697   C176.561417,135.155212 177.005630,135.314713 177.449829,135.474228   C178.232468,134.115356 179.685074,132.761978 179.696243,131.396774   C179.840729,113.762840 179.918335,96.125488 179.697754,78.492935   C179.617996,72.117859 175.129105,68.055725 168.770767,67.877808   C163.618088,67.733620 158.458145,67.865471 153.301697,67.831665   C150.777588,67.815125 149.175766,67.030464 146.923538,65.064903   C142.609924,61.300289 136.578659,59.449726 131.147949,57.059799   C129.894806,56.508320 128.148956,57.209969 126.698822,56.950077   C119.410202,55.643818 116.103477,63.985485 109.395332,63.993080   C108.026642,68.845901 104.093575,67.823219 100.608994,67.827721   C96.616180,67.832870 92.618362,67.966438 88.631744,67.811707   C82.971329,67.591988 79.101212,70.053261 76.787064,75.137238   C67.701363,65.705681 58.615658,56.274120 49.528053,46.840584   C90.053032,5.809060 165.184814,-0.609558 214.631546,48.281002   C263.280914,96.383171 259.387207,171.404816 216.128128,215.323914   C208.182938,206.818451 200.253250,198.329575 192.412415,189.420532   C192.275574,184.601181 188.974838,182.048950 184.018768,182.441452  M128.228897,101.790176   C127.521843,102.519943 126.814781,103.249718 126.107719,103.979485   C127.295860,104.608070 128.473831,105.757721 129.673798,105.781166   C137.819412,105.940361 145.971130,105.939156 154.116989,105.784576   C155.479401,105.758713 156.822845,104.734085 158.175064,104.170975   C158.022781,103.441940 157.870514,102.712906 157.718231,101.983871   C149.146225,101.983871 140.574234,101.983871 131.259857,101.829819   C130.505020,101.875473 129.750183,101.921135 128.228897,101.790176  M169.679489,152.808960   C174.281311,157.723465 179.298187,162.053802 181.573608,169.008301   C183.684891,175.461151 189.764923,178.353043 196.249237,179.654419   C197.352295,179.875793 198.674225,179.006531 199.895035,178.641144   C198.945099,177.711853 198.140671,176.247101 197.020874,175.942764   C191.073181,174.326324 186.585632,171.305054 184.039444,165.372772   C182.581940,161.976974 180.455750,158.768738 178.143082,155.864243   C175.147888,152.102570 171.531723,148.838074 168.487167,145.110992   C167.701477,144.149185 168.054001,142.257599 167.883667,140.793121   C169.221268,140.873154 170.606812,140.767365 171.880264,141.095963   C172.788315,141.330261 173.525909,142.180725 174.373428,142.701050   C181.541519,147.101913 188.692795,151.531631 195.927536,155.820358   C196.683640,156.268600 197.947342,155.860565 198.975540,155.849808   C198.668808,154.724121 198.657593,153.352570 197.978653,152.536530   C197.174744,151.570251 195.805038,151.066116 194.663162,150.391129   C189.564438,147.377151 184.431183,144.420212 179.370911,141.343170   C177.388428,140.137650 175.616333,138.589905 173.656342,137.342758   C170.686707,135.453156 167.735413,135.262222 165.026077,137.904160   C162.265442,140.596100 162.527603,143.560059 164.519867,146.464905   C165.924515,148.512939 167.620422,150.361221 169.679489,152.808960  M206.006058,55.706219   C207.269913,55.900841 208.533752,56.095467 209.797607,56.290085   C209.201767,55.045826 208.903107,53.486378 207.966614,52.603405   C184.619659,30.590693 156.882294,20.337217 124.829941,21.933748   C123.512283,21.999380 122.252037,23.217693 120.965042,23.898975   C122.322540,24.406353 123.700119,25.403860 125.034599,25.349216   C156.029984,24.080032 182.830429,34.038803 206.006058,55.706219  M211.872971,151.721771   C209.233978,145.681107 204.788773,141.862991 198.278671,140.440826   C195.691116,139.875534 193.207855,138.736008 190.604950,138.367340   C188.416046,138.057312 186.122528,138.485931 183.875320,138.587540   C185.738220,139.780807 187.508011,141.814835 189.478882,142.033096   C204.019531,143.643280 210.292358,152.781631 212.250626,166.137085   C212.466965,167.612473 212.611053,169.135284 213.099594,170.526932   C214.467453,174.423309 215.847290,178.332199 217.575378,182.073105   C217.985611,182.961166 219.778152,183.210663 220.934860,183.753891   C220.960068,182.584091 221.280914,181.325104 220.959518,180.259872   C219.534576,175.537170 217.891113,170.880997 216.392471,166.179779   C214.934998,161.607666 213.557556,157.010040 211.872971,151.721771  M139.508850,92.798416   C135.058456,92.798416 130.608063,92.798416 126.157677,92.798416   C125.946960,93.368187 125.736244,93.937965 125.525528,94.507736   C126.742180,95.237236 127.945236,96.570938 129.177689,96.598671   C137.504074,96.786057 145.839096,96.792526 154.164291,96.581062   C155.250244,96.553474 156.296021,94.945412 157.360397,94.069397   C157.052887,93.645737 156.745377,93.222069 156.437866,92.798409   C151.126755,92.798409 145.815628,92.798409 139.508850,92.798416  M137.252365,110.861694   C134.259827,110.882607 131.259750,110.794319 128.279968,111.000046   C127.520805,111.052475 126.826019,112.037659 126.101646,112.594261   C126.827126,113.342819 127.522278,114.701218 128.283096,114.739044   C132.596237,114.953476 136.928040,114.933243 141.245605,114.776070   C141.948563,114.750488 142.612122,113.643356 143.293884,113.036125   C142.579605,112.320915 141.980728,111.335190 141.118286,110.967239   C140.270752,110.605637 139.155579,110.871315 137.252365,110.861694  z"></path>
<path fill="#FDFCFC" opacity="1.000000" stroke="none" d=" M121.870529,126.411850   C136.986221,141.487671 152.101913,156.563492 167.349945,172.294159   C167.480606,177.895050 167.334061,182.846664 167.522858,187.785446   C167.675552,191.779572 166.275803,193.474503 162.056213,193.347916   C153.761673,193.099060 145.452240,193.174744 137.155075,193.372925   C135.923141,193.402344 134.724564,194.829681 133.510559,195.610275   C134.739059,196.178070 135.960312,197.218811 137.197235,197.237778   C145.995102,197.372635 154.796906,197.364594 163.595947,197.266174   C168.794708,197.208038 171.146698,194.884109 171.382034,189.701447   C171.585083,185.229370 171.595367,180.748535 171.690857,176.271576   C172.997238,177.561249 174.303619,178.850906 175.700043,180.886475   C175.784515,183.756989 175.781448,185.881638 175.772919,188.006241   C175.740799,196.004944 173.582504,199.010742 165.693787,201.668945   C165.464630,201.608978 165.041779,201.822571 164.573578,201.763794   C153.413574,201.757812 142.721756,201.810577 131.781128,201.752274   C130.686325,202.093765 129.840347,202.546326 128.854095,203.396088   C129.733429,204.426941 130.751694,205.607788 131.772858,205.610291   C142.911255,205.637726 154.050095,205.480850 165.379547,205.445404   C165.570267,205.516678 165.913086,205.296967 166.311676,205.322861   C175.638885,203.218262 179.181290,198.734344 179.020859,189.865570   C178.991425,188.238190 179.177750,186.606888 179.264481,184.977386   C179.992752,185.255295 180.914581,185.337982 181.420761,185.839859   C192.050308,196.378891 202.632874,206.965271 213.740112,218.057098   C184.518387,244.970078 150.428406,256.447266 111.758995,249.554474   C63.420708,240.938217 30.910315,212.151550 17.208803,164.946518   C4.747247,122.013443 15.694857,83.642670 45.499207,50.052017   C55.968941,60.470924 65.973709,70.427124 76.079506,81.155312   C76.167488,100.958534 76.099503,119.990204 76.246056,139.020218   C76.257736,140.537018 77.752716,142.042389 78.558372,143.553055   C79.049568,142.039383 79.540764,140.525696 80.102310,138.756042   C80.112389,138.333664 80.052101,138.167252 80.084763,137.540115   C80.112015,122.052246 80.046333,107.025116 80.065430,91.635674   C80.110512,90.532318 80.070808,89.791283 80.143433,88.936874   C80.355927,88.478973 80.285179,88.190002 80.021889,87.968079   C80.000252,87.979568 80.043182,87.970566 80.139595,87.732925   C80.183182,87.332672 80.130363,87.170059 80.138824,86.760048   C80.156548,86.348396 80.112999,86.184151 80.167191,85.786652   C80.301331,85.388763 80.337730,85.224136 80.374123,85.059509   C82.418251,87.388832 84.462387,89.718163 86.276474,92.425888   C85.572304,94.464752 84.699432,96.122192 84.686897,97.786125   C84.582909,111.585930 84.624992,125.386963 84.666580,139.187500   C84.670372,140.447586 84.979073,141.706741 85.146179,142.966339   C85.711868,143.087662 86.277550,143.208984 86.843231,143.330307   C87.400345,141.520645 88.419846,139.716125 88.440063,137.900497   C88.578903,125.431679 88.450638,112.959938 88.579994,100.490921   C88.595909,98.957008 89.628326,97.433647 90.189682,95.905396   C93.927773,99.260094 97.665878,102.614792 101.404633,106.332535   C101.237984,106.782234 101.070686,106.868889 100.585876,106.882233   C99.845695,106.873657 99.423042,106.938377 98.692841,106.991226   C98.068703,107.666466 97.752106,108.353569 97.356400,109.500183   C97.269188,117.191124 97.161880,124.424896 97.333611,131.652039   C97.369530,133.163864 98.434540,134.651260 99.415909,136.189056   C100.218895,135.153900 100.631287,134.079620 101.112686,132.575043   C101.502518,129.216675 101.823357,126.288574 102.355652,123.437294   C102.567101,123.514114 102.994705,123.374077 103.150131,123.479691   C103.305557,123.585312 103.639679,123.413223 103.690338,123.395058   C103.741005,123.376892 103.743111,123.481560 103.793800,123.741364   C104.218567,124.361206 104.592644,124.721252 105.035324,125.417831   C107.116234,128.737885 109.128532,131.721390 111.089600,134.628937   C108.509636,138.396667 106.032005,141.750000 103.896553,145.308670   C103.319321,146.270615 103.778595,147.854538 103.762115,149.152954   C104.835030,148.641907 106.252937,148.405487 106.918137,147.569885   C109.185577,144.721588 111.187851,141.662231 113.558670,138.304855   C115.778709,141.446625 117.630592,144.391693 119.843811,147.034149   C120.686440,148.040192 122.358704,148.351364 123.652855,148.979233   C123.479095,147.652588 123.696754,146.087479 123.060272,145.042725   C120.904594,141.504257 118.446487,138.150024 115.991684,134.561264   C118.001434,131.775284 119.935982,129.093567 121.870529,126.411850  M68.031624,201.721481   C68.246719,201.933838 68.504410,202.057236 69.130859,202.755737   C72.093536,203.718262 75.035988,205.430542 78.022469,205.511139   C89.790100,205.828690 101.585716,205.977036 113.342323,205.492935   C119.842598,205.225250 125.486420,202.425217 128.404755,195.091812   C131.902893,189.313995 131.501160,183.616486 127.929962,177.305908   C125.200294,173.364380 122.133751,169.896667 116.122459,169.220169   C115.192352,168.922180 114.263481,168.369370 113.331947,168.364853   C101.552223,168.307724 89.747337,167.899429 78.006203,168.575912   C74.150604,168.798080 70.460037,171.884628 66.701851,173.686417   C66.701851,173.686417 66.679527,173.676300 66.110352,173.910721   C65.645004,174.568527 65.179657,175.226334 64.162590,176.301971   C59.263168,184.584473 59.636730,191.766708 65.520233,199.345337   C66.303543,200.002777 67.086845,200.660217 68.031624,201.721481  M136.897278,243.500961   C137.916901,242.744827 138.936523,241.988693 139.956146,241.232559   C138.492569,240.795654 137.016586,239.941162 135.567291,239.984253   C112.589417,240.667328 91.350624,235.037323 72.218987,222.246552   C66.579559,218.476212 61.595165,213.733963 56.211617,209.564911   C55.367344,208.911118 53.993927,208.940582 52.865189,208.654114   C53.093311,209.763580 53.160324,210.943619 53.604790,211.958328   C53.913963,212.664185 54.726025,213.159988 55.339794,213.720779   C78.184341,234.594055 105.067116,244.553879 136.897278,243.500961  M104.299828,159.177612   C101.330681,156.260773 98.550858,153.114136 95.350700,150.477692   C89.693420,145.816971 83.206848,145.010101 76.665977,148.245438   C70.547661,151.271759 67.145500,156.466705 67.102631,163.438004   C67.095215,164.642929 68.189598,165.854630 68.775055,167.063202   C69.510368,166.023758 70.824074,165.017197 70.885391,163.939407   C71.234627,157.800720 74.074158,153.431366 79.781799,151.309372   C85.548882,149.165283 90.530746,150.981918 94.758530,155.245972   C97.683228,158.195786 100.562035,161.201675 103.654266,163.966766   C104.360596,164.598373 105.861542,164.341354 106.996773,164.493317   C106.843925,163.482300 106.866989,162.397064 106.481834,161.484039   C106.180801,160.770432 105.373245,160.270493 104.299828,159.177612  M139.766190,167.061539   C138.933655,167.061737 138.018021,166.838409 137.286560,167.110397   C135.920975,167.618149 134.662399,168.413635 133.359299,169.089401   C134.666122,169.723312 135.955627,170.858673 137.282776,170.904541   C143.103439,171.105713 148.937286,171.075043 154.760498,170.915115   C155.811249,170.886261 156.834503,169.856049 157.870453,169.288147   C156.809265,168.548599 155.778214,167.227386 154.681656,167.170563   C150.031845,166.929626 145.362579,167.064117 139.766190,167.061539  M141.130463,179.412109   C145.885895,179.645905 150.640320,179.972321 155.397751,180.025055   C156.220139,180.034180 157.055374,178.882965 157.884674,178.267715   C157.129410,177.558090 156.399506,176.269485 155.614685,176.235107   C151.309662,176.046555 146.985794,176.061417 142.682877,176.285172   C141.999329,176.320709 141.389328,177.771057 141.130463,179.412109  z"></path>
<path fill="#353535" opacity="1.000000" stroke="none" d=" M175.952896,79.996864   C174.810730,73.263939 173.225998,71.892250 166.459824,71.869270   C160.488770,71.848991 154.517563,71.865028 148.509827,71.865028   C147.705566,74.723328 148.051270,76.191582 151.265442,76.079842   C156.256836,75.906326 161.268723,76.228302 166.252884,75.971069   C170.150894,75.769897 171.960648,77.101685 170.940460,81.789917   C170.343613,94.479973 170.197906,106.479454 170.125046,118.479385   C170.121872,119.003464 170.786316,119.531609 171.139771,120.057861   C171.238251,123.075508 171.336716,126.093163 170.931152,129.538971   C169.956879,129.973892 169.486649,129.980652 169.013214,129.605621   C168.608047,128.119247 168.206070,127.014694 167.804108,125.910141   C167.708923,125.501312 167.613739,125.092491 168.001099,124.124878   C168.631973,109.644211 168.799072,95.722420 168.863022,81.800163   C168.865692,81.215790 167.907578,80.627014 167.397064,80.040283   C163.755386,80.022453 160.113434,79.967834 156.472122,79.996735   C152.517303,80.028107 148.280380,78.929939 145.488449,83.311691   C144.992645,84.089836 143.063705,83.954834 141.406403,83.812790   C141.015228,82.933167 141.014191,82.482246 141.225296,81.921783   C141.620224,81.384499 141.803009,80.956764 142.385925,80.334579   C143.219406,77.340797 143.625504,74.536926 144.092468,71.743217   C144.800232,67.508987 143.422104,65.529411 138.775665,66.026054   C137.340271,66.179482 134.485916,64.945236 134.427292,64.181618   C134.016220,58.826458 130.095901,60.645275 127.311722,60.421581   C124.664505,60.208889 121.827705,59.907192 121.625298,64.069267   C121.589165,64.812248 119.551765,65.834526 118.318153,66.055038   C116.432930,66.392029 114.443031,66.143425 111.905914,66.143425   C111.905914,69.880638 111.683922,73.017075 112.000221,76.098244   C112.156715,77.622711 113.304871,79.045372 113.976685,80.692604   C113.949028,80.871117 113.858475,81.220863 113.652199,81.282013   C113.182030,81.505676 113.027138,81.740280 113.132584,82.524895   C113.499680,83.258026 113.715446,83.513237 113.931213,83.768448   C112.330963,83.277016 110.035400,83.286148 109.256119,82.203682   C106.523148,78.407402 104.028931,79.623207 101.486931,82.032410   C98.594254,84.773964 95.864372,87.687279 92.883247,90.833130   C91.806534,90.317192 90.910286,89.494049 90.118782,88.127579   C90.809731,86.993134 91.341087,86.332123 91.990929,85.822098   C96.654999,82.161499 99.271141,75.499046 106.730652,75.786636   C107.155640,75.803017 107.665550,73.616707 108.371613,71.873787   C101.072327,71.873787 94.605301,71.893723 88.138474,71.867188   C83.355904,71.847572 80.608131,73.975853 80.457359,78.950142   C79.331497,77.853653 78.205635,76.757172 76.933426,75.398956   C79.101212,70.053261 82.971329,67.591988 88.631744,67.811707   C92.618362,67.966438 96.616180,67.832870 100.608994,67.827721   C104.093575,67.823219 108.026642,68.845901 109.395332,63.993080   C116.103477,63.985485 119.410202,55.643818 126.698822,56.950077   C128.148956,57.209969 129.894806,56.508320 131.147949,57.059799   C136.578659,59.449726 142.609924,61.300289 146.923538,65.064903   C149.175766,67.030464 150.777588,67.815125 153.301697,67.831665   C158.458145,67.865471 163.618088,67.733620 168.770767,67.877808   C175.129105,68.055725 179.617996,72.117859 179.697754,78.492935   C179.918335,96.125488 179.840729,113.762840 179.696243,131.396774   C179.685074,132.761978 178.232468,134.115356 177.449829,135.474228   C177.005630,135.314713 176.561417,135.155212 176.117218,134.995697   C176.003311,133.607590 175.889420,132.219467 176.274323,130.332550   C177.186295,128.848618 177.954102,127.865356 177.959351,126.878036   C178.036835,112.344444 178.057281,97.809906 177.924057,83.277122   C177.913971,82.177773 176.639587,81.090012 175.952896,79.996864  z"></path>
<path fill="#323232" opacity="1.000000" stroke="none" d=" M171.526520,176.062225   C171.595367,180.748535 171.585083,185.229370 171.382034,189.701447   C171.146698,194.884109 168.794708,197.208038 163.595947,197.266174   C154.796906,197.364594 145.995102,197.372635 137.197235,197.237778   C135.960312,197.218811 134.739059,196.178070 133.510559,195.610275   C134.724564,194.829681 135.923141,193.402344 137.155075,193.372925   C145.452240,193.174744 153.761673,193.099060 162.056213,193.347916   C166.275803,193.474503 167.675552,191.779572 167.522858,187.785446   C167.334061,182.846664 167.480606,177.895050 167.583862,172.583893   C168.911041,173.430145 170.136627,174.641510 171.526520,176.062225  z"></path>
<path fill="#FDFDFD" opacity="1.000000" stroke="none" d=" M80.680511,79.230492   C80.608131,73.975853 83.355904,71.847572 88.138474,71.867188   C94.605301,71.893723 101.072327,71.873787 108.371613,71.873787   C107.665550,73.616707 107.155640,75.803017 106.730652,75.786636   C99.271141,75.499046 96.654999,82.161499 91.990929,85.822098   C91.341087,86.332123 90.809731,86.993134 89.990967,87.849106   C86.806824,85.246254 83.855247,82.378548 80.680511,79.230492  z"></path>
<path fill="#323333" opacity="1.000000" stroke="none" d=" M121.678497,126.194496   C119.935982,129.093567 118.001434,131.775284 115.991684,134.561264   C118.446487,138.150024 120.904594,141.504257 123.060272,145.042725   C123.696754,146.087479 123.479095,147.652588 123.652855,148.979233   C122.358704,148.351364 120.686440,148.040192 119.843811,147.034149   C117.630592,144.391693 115.778709,141.446625 113.558670,138.304855   C111.187851,141.662231 109.185577,144.721588 106.918137,147.569885   C106.252937,148.405487 104.835030,148.641907 103.762115,149.152954   C103.778595,147.854538 103.319321,146.270615 103.896553,145.308670   C106.032005,141.750000 108.509636,138.396667 111.089600,134.628937   C109.128532,131.721390 107.116234,128.737885 105.169586,125.129913   C106.350616,124.358101 107.465988,124.210754 108.775558,124.289375   C110.448227,126.564987 111.926704,128.614639 113.542160,130.854187   C115.505844,128.218170 117.240723,125.889290 118.975601,123.560410   C119.812553,124.365982 120.649513,125.171562 121.678497,126.194496  z"></path>
<path fill="#212121" opacity="1.000000" stroke="none" d=" M90.036949,95.603180   C89.628326,97.433647 88.595909,98.957008 88.579994,100.490921   C88.450638,112.959938 88.578903,125.431679 88.440063,137.900497   C88.419846,139.716125 87.400345,141.520645 86.843231,143.330307   C86.277550,143.208984 85.711868,143.087662 85.146179,142.966339   C84.979073,141.706741 84.670372,140.447586 84.666580,139.187500   C84.624992,125.386963 84.582909,111.585930 84.686897,97.786125   C84.699432,96.122192 85.572304,94.464752 86.476067,92.685471   C87.898544,93.478073 88.891380,94.389511 90.036949,95.603180  z"></path>
<path fill="#282828" opacity="1.000000" stroke="none" d=" M108.581360,124.063408   C107.465988,124.210754 106.350616,124.358101 105.100983,124.793373   C104.592644,124.721252 104.218567,124.361206 104.047668,123.529480   C104.500084,122.704529 104.749336,122.351273 105.294052,121.994919   C106.092850,121.900436 106.596169,121.809052 107.099495,121.717659   C107.023277,121.482933 106.947067,121.248207 106.870857,121.013481   C106.247894,121.342773 105.624924,121.672073 104.717087,122.173256   C104.168045,122.701172 103.903862,123.057198 103.639679,123.413223   C103.639679,123.413223 103.305557,123.585312 103.092598,123.271683   C102.634491,123.092186 102.389343,123.226326 102.144196,123.360474   C101.823357,126.288574 101.502518,129.216675 100.759453,132.644623   C99.899925,134.146271 99.462624,135.148087 99.025330,136.149902   C98.434540,134.651260 97.369530,133.163864 97.333611,131.652039   C97.161880,124.424896 97.269188,117.191124 97.630226,109.427963   C98.322227,108.265182 98.661308,107.634140 99.000381,107.003098   C99.423042,106.938377 99.845695,106.873657 100.900940,106.923782   C101.743637,107.011703 101.953766,106.984772 102.163879,106.957855   C103.308411,108.008240 104.452942,109.058624 105.340210,110.374535   C100.543571,111.136101 100.031601,112.563133 102.026421,119.797798   C105.001801,119.535927 108.040466,119.268486 111.079140,119.001045   C111.079140,119.001045 111.039711,118.954735 111.072098,119.297119   C110.263451,121.114128 109.422401,122.588768 108.581360,124.063408  M99.549957,129.514145   C99.549957,129.514145 99.485878,129.546616 99.549957,129.514145  z"></path>
<path fill="#464646" opacity="1.000000" stroke="none" d=" M80.031967,139.012024   C79.540764,140.525696 79.049568,142.039383 78.558372,143.553055   C77.752716,142.042389 76.257736,140.537018 76.246056,139.020218   C76.099503,119.990204 76.167488,100.958534 76.242775,81.461319   C76.805786,81.373703 77.306564,81.752060 77.884583,82.765244   C78.253281,84.959465 78.544724,86.518867 78.871628,88.466019   C78.891312,89.894829 78.875542,90.935890 78.575089,92.285751   C78.181511,107.167519 78.062447,121.740440 78.001793,136.313614   C77.999428,136.883011 78.556084,137.454742 78.991295,138.254379   C79.430870,138.659592 79.731422,138.835815 80.031967,139.012024  z"></path>
<path fill="#302F2F" opacity="1.000000" stroke="none" d=" M179.109161,184.671860   C179.177750,186.606888 178.991425,188.238190 179.020859,189.865570   C179.181290,198.734344 175.638885,203.218262 166.289093,204.876892   C165.886261,203.513000 165.904602,202.620941 165.922943,201.728897   C173.582504,199.010742 175.740799,196.004944 175.772919,188.006241   C175.781448,185.881638 175.784515,183.756989 175.891235,181.163483   C176.979553,181.918503 177.966705,183.142410 179.109161,184.671860  z"></path>
<path fill="#EBEBEB" opacity="1.000000" stroke="none" d=" M111.014969,118.622932   C108.040466,119.268486 105.001801,119.535927 102.026421,119.797798   C100.031601,112.563133 100.543571,111.136101 105.523270,110.602539   C107.625992,113.124954 109.288391,115.684883 111.014969,118.622932  z"></path>
<path fill="#EFF1F1" opacity="1.000000" stroke="none" d=" M108.775551,124.289375   C109.422401,122.588768 110.263451,121.114128 111.045631,119.282135   C114.575607,118.350815 116.619148,120.648499 118.796371,123.295624   C117.240723,125.889290 115.505844,128.218170 113.542160,130.854187   C111.926704,128.614639 110.448227,126.564987 108.775551,124.289375  z"></path>
<path fill="#333332" opacity="1.000000" stroke="none" d=" M94.039810,92.491646   C96.328621,92.213303 98.781250,92.213303 101.490860,92.213303   C101.628189,90.773590 101.513672,89.596916 101.890915,88.607788   C102.387100,87.306763 103.270142,86.153282 103.986839,84.936356   C104.613792,86.097954 105.681854,87.218819 105.793533,88.428009   C106.364494,94.610359 105.082848,95.926178 98.398056,96.203430   C96.720627,95.104332 95.462120,93.937164 94.039810,92.491646  z"></path>
<path fill="#383635" opacity="1.000000" stroke="none" d=" M184.206314,182.691864   C188.974838,182.048950 192.275574,184.601181 192.240936,189.130676   C189.451691,187.154724 186.922775,185.048508 184.206314,182.691864  z"></path>
<path fill="#2D2D2D" opacity="1.000000" stroke="none" d=" M78.836166,88.078278   C78.544724,86.518867 78.253281,84.959465 77.994743,82.975388   C78.623955,83.105820 79.220261,83.660919 79.775208,84.653671   C79.845718,85.400856 79.957581,85.710381 80.069450,86.019905   C80.112999,86.184151 80.156548,86.348396 79.955063,86.846512   C79.495697,87.343063 79.321808,87.541199 79.103378,87.854233   C79.018417,87.933678 78.836174,88.078278 78.836166,88.078278  z"></path>
<path fill="#464646" opacity="1.000000" stroke="none" d=" M80.167191,85.786652   C79.957581,85.710381 79.845718,85.400856 79.868645,84.943565   C80.003441,84.795799 80.276176,84.936859 80.325150,84.998184   C80.337730,85.224136 80.301331,85.388763 80.167191,85.786652  z"></path>
<path fill="#3B3B3B" opacity="1.000000" stroke="none" d=" M102.153687,106.879074   C101.953766,106.984772 101.743637,107.011703 101.218460,106.997086   C101.070686,106.868889 101.237984,106.782234 101.678391,106.623619   C101.951492,106.551659 102.143486,106.800301 102.153687,106.879074  z"></path>
<path fill="#343434" opacity="1.000000" stroke="none" d=" M169.432892,152.553833   C167.620422,150.361221 165.924515,148.512939 164.519867,146.464905   C162.527603,143.560059 162.265442,140.596100 165.026077,137.904160   C167.735413,135.262222 170.686707,135.453156 173.656342,137.342758   C175.616333,138.589905 177.388428,140.137650 179.370911,141.343170   C184.431183,144.420212 189.564438,147.377151 194.663162,150.391129   C195.805038,151.066116 197.174744,151.570251 197.978653,152.536530   C198.657593,153.352570 198.668808,154.724121 198.975540,155.849808   C197.947342,155.860565 196.683640,156.268600 195.927536,155.820358   C188.692795,151.531631 181.541519,147.101913 174.373428,142.701050   C173.525909,142.180725 172.788315,141.330261 171.880264,141.095963   C170.606812,140.767365 169.221268,140.873154 167.883667,140.793121   C168.054001,142.257599 167.701477,144.149185 168.487167,145.110992   C171.531723,148.838074 175.147888,152.102570 178.143082,155.864243   C180.455750,158.768738 182.581940,161.976974 184.039444,165.372772   C186.585632,171.305054 191.073181,174.326324 197.020874,175.942764   C198.140671,176.247101 198.945099,177.711853 199.895035,178.641144   C198.674225,179.006531 197.352295,179.875793 196.249237,179.654419   C189.764923,178.353043 183.684891,175.461151 181.573608,169.008301   C179.298187,162.053802 174.281311,157.723465 169.432892,152.553833  z"></path>
<path fill="#F91617" opacity="1.000000" stroke="none" d=" M205.761993,55.430092   C182.830429,34.038803 156.029984,24.080032 125.034599,25.349216   C123.700119,25.403860 122.322540,24.406353 120.965042,23.898977   C122.252037,23.217693 123.512283,21.999380 124.829941,21.933748   C156.882294,20.337217 184.619659,30.590693 207.966614,52.603405   C208.903107,53.486378 209.201767,55.045826 209.797607,56.290085   C208.533752,56.095467 207.269913,55.900841 205.761993,55.430092  z"></path>
<path fill="#333333" opacity="1.000000" stroke="none" d=" M212.008972,152.072693   C213.557556,157.010040 214.934998,161.607666 216.392471,166.179779   C217.891113,170.880997 219.534576,175.537170 220.959518,180.259872   C221.280914,181.325104 220.960068,182.584091 220.934860,183.753891   C219.778152,183.210663 217.985611,182.961166 217.575378,182.073105   C215.847290,178.332199 214.467453,174.423309 213.099594,170.526932   C212.611053,169.135284 212.466965,167.612473 212.250626,166.137085   C210.292358,152.781631 204.019531,143.643280 189.478882,142.033096   C187.508011,141.814835 185.738220,139.780807 183.875320,138.587540   C186.122528,138.485931 188.416046,138.057312 190.604950,138.367340   C193.207855,138.736008 195.691116,139.875534 198.278671,140.440826   C204.788773,141.862991 209.233978,145.681107 212.008972,152.072693  z"></path>
<path fill="#212121" opacity="1.000000" stroke="none" d=" M140.006683,92.798416   C145.815628,92.798409 151.126755,92.798409 156.437866,92.798409   C156.745377,93.222069 157.052887,93.645737 157.360397,94.069397   C156.296021,94.945412 155.250244,96.553474 154.164291,96.581062   C145.839096,96.792526 137.504074,96.786057 129.177689,96.598671   C127.945236,96.570938 126.742180,95.237236 125.525528,94.507736   C125.736244,93.937965 125.946960,93.368187 126.157677,92.798416   C130.608063,92.798416 135.058456,92.798416 140.006683,92.798416  z"></path>
<path fill="#3F3F3F" opacity="1.000000" stroke="none" d=" M132.002228,101.983871   C140.574234,101.983871 149.146225,101.983871 157.718231,101.983871   C157.870514,102.712906 158.022781,103.441940 158.175064,104.170975   C156.822845,104.734085 155.479401,105.758713 154.116989,105.784576   C145.971130,105.939156 137.819412,105.940361 129.673798,105.781166   C128.473831,105.757721 127.295860,104.608070 126.107727,103.979492   C126.814781,103.249718 127.521843,102.519943 128.647461,102.223450   C130.555313,104.660362 131.508118,104.322990 132.002228,101.983871  z"></path>
<path fill="#2D2D2D" opacity="1.000000" stroke="none" d=" M175.871658,80.459694   C176.639587,81.090012 177.913971,82.177773 177.924057,83.277122   C178.057281,97.809906 178.036835,112.344444 177.959351,126.878036   C177.954102,127.865356 177.186295,128.848618 176.372192,129.917847   C175.910980,113.642120 175.850708,97.282326 175.871658,80.459694  z"></path>
<path fill="#343434" opacity="1.000000" stroke="none" d=" M137.705109,110.861710   C139.155579,110.871315 140.270752,110.605637 141.118286,110.967239   C141.980728,111.335190 142.579605,112.320915 143.293884,113.036125   C142.612122,113.643356 141.948563,114.750488 141.245605,114.776070   C136.928040,114.933243 132.596237,114.953476 128.283096,114.739044   C127.522278,114.701218 126.827126,113.342819 126.101654,112.594269   C126.826019,112.037659 127.520805,111.052475 128.279968,111.000046   C131.259750,110.794319 134.259827,110.882607 137.705109,110.861710  z"></path>
<path fill="#1B1B1B" opacity="1.000000" stroke="none" d=" M141.985809,80.529030   C141.803009,80.956764 141.620224,81.384499 140.755264,81.910690   C133.823349,82.006599 127.571289,81.910751 121.325371,82.064346   C119.677734,82.104858 118.049034,82.915535 116.411636,83.372559   C116.050041,83.592659 115.688446,83.812767 115.264870,83.504227   C115.472610,82.157936 115.742325,81.340279 116.471497,80.429985   C125.282562,80.401237 133.634186,80.465134 141.985809,80.529030  z"></path>
<path fill="#161616" opacity="1.000000" stroke="none" d=" M167.471420,80.503784   C167.907578,80.627014 168.865692,81.215790 168.863022,81.800163   C168.799072,95.722420 168.631973,109.644211 168.144241,123.835052   C167.718475,109.725113 167.632126,95.346199 167.471420,80.503784  z"></path>
<path fill="#2E2E2E" opacity="1.000000" stroke="none" d=" M116.685341,83.642944   C118.049034,82.915535 119.677734,82.104858 121.325371,82.064346   C127.571289,81.910751 133.823349,82.006599 140.543137,82.020241   C141.014191,82.482246 141.015228,82.933167 141.009766,83.722519   C132.988525,84.011742 124.973778,83.962540 116.685341,83.642944  z"></path>
<path fill="#191919" opacity="1.000000" stroke="none" d=" M171.232422,119.592957   C170.786316,119.531609 170.121872,119.003464 170.125046,118.479385   C170.197906,106.479454 170.343613,94.479973 170.806000,82.208344   C171.199219,94.333534 171.262146,106.730797 171.232422,119.592957  z"></path>
<path fill="#2E2E2E" opacity="1.000000" stroke="none" d=" M116.012047,80.522629   C115.742325,81.340279 115.472610,82.157936 114.649353,83.348236   C114.095810,83.720886 113.953957,83.708984 113.942581,83.738716   C113.715446,83.513237 113.499680,83.258026 113.326241,82.438232   C113.634781,81.733192 113.798080,81.515602 113.858475,81.220863   C113.858475,81.220863 113.949028,80.871117 114.305664,80.589249   C115.112221,80.379128 115.562134,80.450874 116.012047,80.522629  z"></path>
<path fill="#2E2E2E" opacity="1.000000" stroke="none" d=" M131.631042,101.906845   C131.508118,104.322990 130.555313,104.660362 129.030701,102.311752   C129.750183,101.921135 130.505020,101.875473 131.631042,101.906845  z"></path>
<path fill="#191919" opacity="1.000000" stroke="none" d=" M169.016403,129.987427   C169.486649,129.980652 169.956879,129.973892 170.780106,129.968750   C170.655548,130.608917 170.178024,131.247437 169.367416,131.520050   C169.020096,130.773132 169.005829,130.392105 168.996155,130.004913   C169.000732,129.998734 169.016403,129.987411 169.016403,129.987427  z"></path>
<path fill="#161616" opacity="1.000000" stroke="none" d=" M167.705780,126.317337   C168.206070,127.014694 168.608047,128.119247 169.013214,129.605606   C169.016403,129.987411 169.000732,129.998734 168.710236,130.016479   C168.228867,130.036026 168.037964,130.037796 167.847046,130.039581   C167.767181,128.934570 167.687332,127.829552 167.705780,126.317337  z"></path>
<path fill="#353535" opacity="1.000000" stroke="none" d=" M167.804245,130.349792   C168.037964,130.037796 168.228867,130.036026 168.705658,130.022675   C169.005829,130.392105 169.020096,130.773132 169.038681,131.440552   C168.615829,131.371307 168.188629,131.015656 167.804245,130.349792  z"></path>
<path fill="#363636" opacity="1.000000" stroke="none" d=" M66.694008,173.661316   C70.460037,171.884628 74.150604,168.798080 78.006203,168.575912   C89.747337,167.899429 101.552223,168.307724 113.331947,168.364853   C114.263481,168.369370 115.192352,168.922180 116.546219,169.314972   C116.969971,169.409775 117.053688,169.426971 116.657845,169.602921   C115.507439,170.498444 114.753464,171.833038 113.998222,171.833755   C110.235260,171.837311 106.464684,171.572968 102.710884,171.242722   C99.090836,170.924225 97.600044,172.313156 97.734871,176.057083   C97.949448,182.015610 97.792595,187.987518 97.792778,193.953766   C97.792862,196.833298 97.792793,199.712845 97.792793,202.538177   C108.910736,203.054962 118.932838,203.604980 125.999847,194.098099   C127.048004,194.910904 127.473206,195.228333 127.898407,195.545746   C125.486420,202.425217 119.842598,205.225250 113.342323,205.492935   C101.585716,205.977036 89.790100,205.828690 78.022469,205.511139   C75.035988,205.430542 72.093536,203.718262 69.272636,202.293671   C69.964989,201.166397 70.515572,200.501190 71.434677,200.016937   C79.040535,200.867706 86.277870,201.537537 93.476715,202.203796   C93.476715,191.442276 93.476715,182.050690 93.476715,172.709702   C81.603882,171.237579 75.806740,171.914413 69.927811,175.020157   C68.702339,174.344070 67.698174,174.002701 66.694008,173.661316  z"></path>
<path fill="#FA1819" opacity="1.000000" stroke="none" d=" M136.449585,243.529144   C105.067116,244.553879 78.184341,234.594055 55.339794,213.720779   C54.726025,213.159988 53.913963,212.664185 53.604790,211.958328   C53.160324,210.943619 53.093311,209.763580 52.865189,208.654114   C53.993927,208.940582 55.367344,208.911118 56.211617,209.564911   C61.595165,213.733963 66.579559,218.476212 72.218987,222.246552   C91.350624,235.037323 112.589417,240.667328 135.567291,239.984253   C137.016586,239.941162 138.492569,240.795654 139.956146,241.232559   C138.936523,241.988693 137.916901,242.744827 136.449585,243.529144  z"></path>
<path fill="#353535" opacity="1.000000" stroke="none" d=" M104.545288,159.426605   C105.373245,160.270493 106.180801,160.770432 106.481834,161.484039   C106.866989,162.397064 106.843925,163.482300 106.996773,164.493317   C105.861542,164.341354 104.360596,164.598373 103.654266,163.966766   C100.562035,161.201675 97.683228,158.195786 94.758530,155.245972   C90.530746,150.981918 85.548882,149.165283 79.781799,151.309372   C74.074158,153.431366 71.234627,157.800720 70.885391,163.939407   C70.824074,165.017197 69.510368,166.023758 68.775055,167.063202   C68.189598,165.854630 67.095215,164.642929 67.102631,163.438004   C67.145500,156.466705 70.547661,151.271759 76.665977,148.245438   C83.206848,145.010101 89.693420,145.816971 95.350700,150.477692   C98.550858,153.114136 101.330681,156.260773 104.545288,159.426605  z"></path>
<path fill="#302F2F" opacity="1.000000" stroke="none" d=" M165.188843,205.374130   C154.050095,205.480850 142.911255,205.637726 131.772858,205.610291   C130.751694,205.607788 129.733429,204.426941 129.155106,203.390717   C130.407562,202.613235 131.218750,202.238297 132.029938,201.863342   C142.721756,201.810577 153.413574,201.757812 164.603699,202.207443   C165.130936,203.597946 165.159897,204.486038 165.188843,205.374130  z"></path>
<path fill="#333333" opacity="1.000000" stroke="none" d=" M140.233307,167.061478   C145.362579,167.064117 150.031845,166.929626 154.681656,167.170563   C155.778214,167.227386 156.809265,168.548599 157.870453,169.288147   C156.834503,169.856049 155.811249,170.886261 154.760498,170.915115   C148.937286,171.075043 143.103439,171.105713 137.282776,170.904541   C135.955627,170.858673 134.666122,169.723312 133.359299,169.089386   C134.662399,168.413635 135.920975,167.618149 137.286560,167.110397   C138.018021,166.838409 138.933655,167.061737 140.233307,167.061478  z"></path>
<path fill="#2F2F2F" opacity="1.000000" stroke="none" d=" M66.697929,173.673874   C67.698174,174.002701 68.702339,174.344070 69.758377,175.304871   C63.878838,182.288055 63.284214,187.360764 66.880363,196.546585   C65.967598,197.826767 65.653313,198.373856 65.339035,198.920929   C59.636730,191.766708 59.263168,184.584473 64.804764,176.076874   C65.857803,175.126617 66.268669,174.401459 66.679535,173.676300   C66.679527,173.676300 66.701851,173.686417 66.697929,173.673874  z"></path>
<path fill="#2D2D2D" opacity="1.000000" stroke="none" d=" M78.852264,138.025375   C78.556084,137.454742 77.999428,136.883011 78.001793,136.313614   C78.062447,121.740440 78.181511,107.167519 78.855942,92.296692   C79.607872,91.998558 79.794258,91.998276 79.980652,91.997986   C80.046333,107.025116 80.112015,122.052246 79.799713,137.539093   C79.231911,138.007675 79.042091,138.016525 78.852264,138.025375  z"></path>
<path fill="#333333" opacity="1.000000" stroke="none" d=" M140.937897,178.989716   C141.389328,177.771057 141.999329,176.320709 142.682877,176.285172   C146.985794,176.061417 151.309662,176.046555 155.614685,176.235107   C156.399506,176.269485 157.129410,177.558090 157.884674,178.267715   C157.055374,178.882965 156.220139,180.034180 155.397751,180.025055   C150.640320,179.972321 145.885895,179.645905 140.937897,178.989716  z"></path>
<path fill="#363636" opacity="1.000000" stroke="none" d=" M128.052429,177.981720   C131.501160,183.616486 131.902893,189.313995 128.151581,195.318787   C127.473206,195.228333 127.048004,194.910904 126.241989,193.968887   C126.981323,188.185226 127.215149,183.127151 124.641251,178.332581   C126.097084,178.141632 127.074760,178.061676 128.052429,177.981720  M128.840576,185.048615   C128.586731,185.199478 128.206055,185.300171 128.120102,185.517456   C128.054062,185.684387 128.359299,185.998154 128.499435,186.246628   C128.639984,185.997864 128.780548,185.749084 128.840576,185.048615  z"></path>
<path fill="#343434" opacity="1.000000" stroke="none" d=" M127.991196,177.643814   C127.074760,178.061676 126.097084,178.141632 124.412560,178.111633   C121.893440,174.829178 116.337013,174.561325 117.053688,169.426971   C117.053688,169.426971 116.969971,169.409775 116.938141,169.439011   C122.133751,169.896667 125.200294,173.364380 127.991196,177.643814  z"></path>
<path fill="#363636" opacity="1.000000" stroke="none" d=" M67.870148,201.317657   C67.086845,200.660217 66.303543,200.002777 65.429634,199.133133   C65.653313,198.373856 65.967598,197.826767 67.107262,196.723846   C68.753899,197.053909 69.575150,197.939804 70.008316,198.905518   C69.036873,199.762772 68.453506,200.540207 67.870148,201.317657  z"></path>
<path fill="#2F2F2F" opacity="1.000000" stroke="none" d=" M67.950882,201.519562   C68.453506,200.540207 69.036873,199.762772 70.195633,199.010651   C70.935158,199.278366 71.033531,199.545044 71.066147,199.835983   C70.515572,200.501190 69.964989,201.166397 69.109558,201.961639   C68.504410,202.057236 68.246719,201.933838 67.950882,201.519562  z"></path>
<path fill="#494949" opacity="1.000000" stroke="none" d=" M131.781128,201.752289   C131.218750,202.238297 130.407562,202.613235 129.295380,202.993530   C129.840347,202.546326 130.686325,202.093765 131.781128,201.752289  z"></path>
<path fill="#3B3B3B" opacity="1.000000" stroke="none" d=" M99.415916,136.189056   C99.462624,135.148087 99.899925,134.146271 100.690460,133.074890   C100.631287,134.079620 100.218895,135.153900 99.415916,136.189056  z"></path>
<path fill="#363636" opacity="1.000000" stroke="none" d=" M66.394943,173.793518   C66.268669,174.401459 65.857803,175.126617 65.080627,175.867950   C65.179657,175.226334 65.645004,174.568527 66.394943,173.793518  z"></path>
<path fill="#3B3B3B" opacity="1.000000" stroke="none" d=" M98.692848,106.991226   C98.661308,107.634140 98.322227,108.265182 97.709328,108.968445   C97.752106,108.353569 98.068703,107.666466 98.692848,106.991226  z"></path>
<path fill="#1D1E1D" opacity="1.000000" stroke="none" d=" M80.065430,91.635674   C79.794258,91.998276 79.607872,91.998558 79.140625,91.987900   C78.875542,90.935890 78.891312,89.894829 78.871628,88.466019   C78.836174,88.078278 79.018417,87.933678 79.313721,87.910950   C79.609016,87.888229 80.043182,87.970566 80.043182,87.970566   C80.043182,87.970566 80.000252,87.979568 79.944519,88.240631   C79.936226,88.684547 79.983665,88.867393 80.031105,89.050240   C80.070808,89.791283 80.110512,90.532318 80.065430,91.635674  z"></path>
<path fill="#494949" opacity="1.000000" stroke="none" d=" M165.379547,205.445404   C165.159897,204.486038 165.130936,203.597946 165.071884,202.266205   C165.041779,201.822571 165.464630,201.608978 165.693787,201.668945   C165.904602,202.620941 165.886261,203.513000 165.890503,204.851013   C165.913086,205.296967 165.570267,205.516678 165.379547,205.445404  z"></path>
<path fill="#464646" opacity="1.000000" stroke="none" d=" M80.139595,87.732925   C80.043182,87.970566 79.609016,87.888229 79.398682,87.831512   C79.321808,87.541199 79.495697,87.343063 79.893784,87.093918   C80.130363,87.170059 80.183182,87.332672 80.139595,87.732925  z"></path>
<path fill="#464646" opacity="1.000000" stroke="none" d=" M80.143433,88.936874   C79.983665,88.867393 79.936226,88.684547 79.966156,88.229149   C80.285179,88.190002 80.355927,88.478973 80.143433,88.936874  z"></path>
<path fill="#323333" opacity="1.000000" stroke="none" d=" M102.355652,123.437294   C102.389343,123.226326 102.634491,123.092186 102.937172,123.166061   C102.994705,123.374077 102.567101,123.514114 102.355652,123.437294  z"></path>
<path fill="#1D1E1D" opacity="1.000000" stroke="none" d=" M78.991295,138.254379   C79.042091,138.016525 79.231911,138.007675 79.706779,137.999847   C80.052101,138.167252 80.112389,138.333664 80.102318,138.756042   C79.731422,138.835815 79.430870,138.659592 78.991295,138.254379  z"></path>
<path fill="#FAFAFA" opacity="1.000000" stroke="none" d=" M116.471497,80.429985   C115.562134,80.450874 115.112221,80.379128 114.333328,80.410736   C113.304871,79.045372 112.156715,77.622711 112.000221,76.098244   C111.683922,73.017075 111.905914,69.880638 111.905914,66.143425   C114.443031,66.143425 116.432930,66.392029 118.318153,66.055038   C119.551765,65.834526 121.589165,64.812248 121.625298,64.069267   C121.827705,59.907192 124.664505,60.208889 127.311722,60.421581   C130.095901,60.645275 134.016220,58.826458 134.427292,64.181618   C134.485916,64.945236 137.340271,66.179482 138.775665,66.026054   C143.422104,65.529411 144.800232,67.508987 144.092468,71.743217   C143.625504,74.536926 143.219406,77.340797 142.385925,80.334579   C133.634186,80.465134 125.282562,80.401237 116.471497,80.429985  M127.518791,75.988785   C129.845810,75.990623 132.198578,76.193550 134.487793,75.900284   C135.472458,75.774132 136.325317,74.618958 137.238052,73.931290   C136.398834,73.314056 135.579422,72.197517 134.717072,72.163307   C130.236603,71.985542 125.741196,71.987106 121.261078,72.171310   C120.415344,72.206085 119.615211,73.349869 118.794037,73.981926   C119.721481,74.654701 120.571999,75.704811 121.594116,75.913170   C123.189102,76.238297 124.900429,75.992729 127.518791,75.988785  z"></path>
<path fill="#1B1B1B" opacity="1.000000" stroke="none" d=" M113.652199,81.282013   C113.798080,81.515602 113.634781,81.733192 113.174919,81.960312   C113.027138,81.740280 113.182030,81.505676 113.652199,81.282013  z"></path>
<path fill="#323333" opacity="1.000000" stroke="none" d=" M105.001953,122.001358   C105.624924,121.672073 106.247894,121.342773 106.870857,121.013481   C106.947067,121.248207 107.023277,121.482933 107.099495,121.717659   C106.596169,121.809052 106.092850,121.900436 105.294769,121.995911   C105.000000,122.000000 105.001953,122.001358 105.001953,122.001358  z"></path>
<path fill="#323333" opacity="1.000000" stroke="none" d=" M104.999290,121.999008   C104.749336,122.351273 104.500084,122.704529 103.996979,123.269669   C103.743111,123.481560 103.741005,123.376892 103.690338,123.395058   C103.903862,123.057198 104.168045,122.701172 104.717087,122.173248   C105.001953,122.001358 105.000000,122.000000 104.999290,121.999008  z"></path>
<path fill="#3B3B3B" opacity="1.000000" stroke="none" d=" M99.517914,129.530380   C99.485878,129.546616 99.549957,129.514145 99.517914,129.530380  z"></path>
<path fill="#F6F6F6" opacity="1.000000" stroke="none" d=" M116.657845,169.602921   C116.337013,174.561325 121.893440,174.829178 123.934402,178.222595   C127.215149,183.127151 126.981323,188.185226 125.619034,193.473495   C118.932838,203.604980 108.910736,203.054962 97.792793,202.538177   C97.792793,199.712845 97.792862,196.833298 97.792778,193.953766   C97.792595,187.987518 97.949448,182.015610 97.734871,176.057083   C97.600044,172.313156 99.090836,170.924225 102.710884,171.242722   C106.464684,171.572968 110.235260,171.837311 113.998222,171.833755   C114.753464,171.833038 115.507439,170.498444 116.657845,169.602921  M120.277687,188.413620   C121.296204,187.692261 123.118713,187.052841 123.201942,186.236145   C123.718422,181.168365 117.685143,175.262100 112.689453,175.813370   C111.796661,175.911896 111.007454,176.949051 110.170410,177.552795   C110.788872,178.230255 111.358704,179.438843 112.033531,179.500626   C117.164650,179.970428 119.032791,183.324509 120.277687,188.413620  z"></path>
<path fill="#F7F7F7" opacity="1.000000" stroke="none" d=" M71.434677,200.016937   C71.033531,199.545044 70.935158,199.278366 70.583710,198.930817   C69.575150,197.939804 68.753899,197.053909 67.705750,195.990753   C63.284214,187.360764 63.878838,182.288055 69.979691,175.639587   C75.806740,171.914413 81.603882,171.237579 93.476715,172.709702   C93.476715,182.050690 93.476715,191.442276 93.476715,202.203796   C86.277870,201.537537 79.040535,200.867706 71.434677,200.016937  M68.376846,186.081177   C68.121017,192.425720 71.997604,197.611450 77.590614,198.031754   C78.759415,198.119583 80.011673,197.096878 81.225471,196.585922   C80.349091,195.799179 79.571152,194.509216 78.578835,194.315109   C74.809250,193.577728 72.968254,191.298538 71.920090,187.776779   C71.630577,186.804031 69.949486,186.245453 68.376846,186.081177  z"></path>
<path fill="#343434" opacity="1.000000" stroke="none" d=" M128.880829,185.274475   C128.780548,185.749084 128.639984,185.997864 128.499435,186.246628   C128.359299,185.998154 128.054062,185.684387 128.120102,185.517456   C128.206055,185.300171 128.586731,185.199478 128.880829,185.274475  z"></path>
<path fill="#333333" opacity="1.000000" stroke="none" d=" M127.040627,75.988876   C124.900429,75.992729 123.189102,76.238297 121.594116,75.913170   C120.571999,75.704811 119.721481,74.654701 118.794037,73.981918   C119.615211,73.349869 120.415344,72.206085 121.261078,72.171310   C125.741196,71.987106 130.236603,71.985542 134.717072,72.163307   C135.579422,72.197517 136.398834,73.314056 137.238052,73.931290   C136.325317,74.618958 135.472458,75.774132 134.487793,75.900284   C132.198578,76.193550 129.845810,75.990623 127.040627,75.988876  z"></path>
<path fill="#363636" opacity="1.000000" stroke="none" d=" M120.035774,188.102051   C119.032791,183.324509 117.164650,179.970428 112.033531,179.500626   C111.358704,179.438843 110.788872,178.230255 110.170410,177.552795   C111.007454,176.949051 111.796661,175.911896 112.689453,175.813370   C117.685143,175.262100 123.718422,181.168365 123.201942,186.236145   C123.118713,187.052841 121.296204,187.692261 120.035774,188.102051  z"></path>
<path fill="#343434" opacity="1.000000" stroke="none" d=" M68.641869,185.789001   C69.949486,186.245453 71.630577,186.804031 71.920090,187.776779   C72.968254,191.298538 74.809250,193.577728 78.578835,194.315109   C79.571152,194.509216 80.349091,195.799179 81.225479,196.585938   C80.011673,197.096878 78.759415,198.119583 77.590614,198.031754   C71.997604,197.611450 68.121017,192.425720 68.641869,185.789001  z"></path>
</svg>
