<svg xmlns="http://www.w3.org/2000/svg" viewBox="0 0 640 400" role="img" aria-label="Antiparasitic products">
  <defs>
    <linearGradient id="bg" x1="0%" y1="0%" x2="100%" y2="100%">
      <stop offset="0%" stop-color="#f6f8f7"/>
      <stop offset="100%" stop-color="#e8eeea"/>
    </linearGradient>
    <linearGradient id="bottle" x1="0%" y1="0%" x2="0%" y2="100%">
      <stop offset="0%" stop-color="#ffffff"/>
      <stop offset="100%" stop-color="#e8ece8"/>
    </linearGradient>
    <linearGradient id="cap" x1="0%" y1="0%" x2="0%" y2="100%">
      <stop offset="0%" stop-color="#3d7a5c"/>
      <stop offset="100%" stop-color="#2d6a4f"/>
    </linearGradient>
  </defs>
  <rect width="640" height="400" fill="url(#bg)"/>
  <circle cx="500" cy="85" r="105" fill="#2d6a4f" opacity="0.07"/>
  <circle cx="110" cy="315" r="88" fill="#7eb8a0" opacity="0.1"/>
  <g transform="translate(210 70)">
    <rect x="52" y="0" width="76" height="36" rx="8" fill="url(#cap)"/>
    <rect x="40" y="28" width="100" height="180" rx="18" fill="url(#bottle)" stroke="#c5d4cb" stroke-width="1.5"/>
    <rect x="56" y="72" width="68" height="56" rx="8" fill="#2d6a4f" opacity="0.1"/>
    <rect x="68" y="88" width="44" height="24" rx="12" fill="#2d6a4f" opacity="0.22"/>
    <ellipse cx="90" cy="200" rx="34" ry="12" fill="#2d6a4f" opacity="0.08"/>
    <rect x="168" y="96" width="120" height="44" rx="22" fill="#ffffff" stroke="#c5d4cb" stroke-width="1.5"/>
    <rect x="188" y="108" width="80" height="20" rx="10" fill="#2d6a4f" opacity="0.15"/>
    <rect x="168" y="156" width="120" height="44" rx="22" fill="#ffffff" stroke="#c5d4cb" stroke-width="1.5"/>
    <rect x="188" y="168" width="80" height="20" rx="10" fill="#2d6a4f" opacity="0.12"/>
  </g>
</svg>
