<svg xmlns="http://www.w3.org/2000/svg" viewBox="0 0 640 400" role="img" aria-label="Best-selling wellness products">
  <defs>
    <linearGradient id="bg" x1="0%" y1="0%" x2="100%" y2="100%">
      <stop offset="0%" stop-color="#f6f8f7"/>
      <stop offset="100%" stop-color="#e8eeea"/>
    </linearGradient>
  </defs>
  <rect width="640" height="400" fill="url(#bg)"/>
  <circle cx="320" cy="200" r="140" fill="#2d6a4f" opacity="0.05"/>
  <g transform="translate(160 95)">
    <rect x="0" y="60" width="100" height="120" rx="12" fill="#fff" stroke="#c5d4cb" stroke-width="1.5"/>
    <rect x="120" y="40" width="100" height="140" rx="12" fill="#fff" stroke="#c5d4cb" stroke-width="1.5"/>
    <rect x="240" y="70" width="100" height="110" rx="12" fill="#fff" stroke="#c5d4cb" stroke-width="1.5"/>
    <path d="M170 8 L188 44 L228 48 L198 72 L206 112 L170 92 L134 112 L142 72 L112 48 L152 44 Z" fill="#2d6a4f" opacity="0.85"/>
    <rect x="24" y="80" width="52" height="8" rx="4" fill="#2d6a4f" opacity="0.15"/>
    <rect x="144" y="68" width="52" height="8" rx="4" fill="#2d6a4f" opacity="0.2"/>
    <rect x="264" y="98" width="52" height="8" rx="4" fill="#2d6a4f" opacity="0.15"/>
  </g>
</svg>
