<svg xmlns="http://www.w3.org/2000/svg" viewBox="0 0 640 400" role="img" aria-label="Cancer support products">
  <defs>
    <linearGradient id="bg" x1="0%" y1="0%" x2="100%" y2="100%">
      <stop offset="0%" stop-color="#f6f8f7"/>
      <stop offset="100%" stop-color="#e8eeea"/>
    </linearGradient>
    <linearGradient id="box" x1="0%" y1="0%" x2="0%" y2="100%">
      <stop offset="0%" stop-color="#ffffff"/>
      <stop offset="100%" stop-color="#e8ece8"/>
    </linearGradient>
    <linearGradient id="accent" x1="0%" y1="0%" x2="100%" y2="0%">
      <stop offset="0%" stop-color="#7eb8a0"/>
      <stop offset="100%" stop-color="#2d6a4f"/>
    </linearGradient>
  </defs>
  <rect width="640" height="400" fill="url(#bg)"/>
  <circle cx="520" cy="95" r="110" fill="#2d6a4f" opacity="0.06"/>
  <circle cx="95" cy="300" r="92" fill="#7eb8a0" opacity="0.1"/>
  <g transform="translate(185 78)">
    <rect x="0" y="48" width="150" height="150" rx="16" fill="url(#box)" stroke="#c5d4cb" stroke-width="1.5"/>
    <rect x="18" y="66" width="114" height="10" rx="5" fill="url(#accent)" opacity="0.35"/>
    <rect x="18" y="88" width="88" height="8" rx="4" fill="#2d6a4f" opacity="0.12"/>
    <rect x="18" y="108" width="104" height="8" rx="4" fill="#2d6a4f" opacity="0.1"/>
    <rect x="18" y="156" width="72" height="28" rx="14" fill="#2d6a4f" opacity="0.14"/>
    <rect x="176" y="24" width="110" height="174" rx="14" fill="url(#box)" stroke="#c5d4cb" stroke-width="1.5"/>
    <rect x="194" y="48" width="74" height="74" rx="37" fill="#f0ebe3" stroke="#d4ccc0" stroke-width="1.5"/>
    <path d="M231 70c-10 0-18 8-18 18s8 18 18 18 18-8 18-18-8-18-18-18zm0 8c5.5 0 10 4.5 10 10s-4.5 10-10 10-10-4.5-10-10 4.5-10 10-10z" fill="#2d6a4f" opacity="0.22"/>
    <rect x="194" y="140" width="74" height="10" rx="5" fill="#2d6a4f" opacity="0.12"/>
    <rect x="194" y="162" width="54" height="8" rx="4" fill="#2d6a4f" opacity="0.1"/>
  </g>
</svg>
