<svg xmlns="http://www.w3.org/2000/svg" viewBox="0 0 640 400" role="img" aria-label="Peptide products">
  <defs>
    <linearGradient id="bg" x1="0%" y1="0%" x2="100%" y2="100%">
      <stop offset="0%" stop-color="#f6f8f7"/>
      <stop offset="100%" stop-color="#e8eeea"/>
    </linearGradient>
    <linearGradient id="vial" x1="0%" y1="0%" x2="0%" y2="100%">
      <stop offset="0%" stop-color="#ffffff"/>
      <stop offset="100%" stop-color="#e8ece8"/>
    </linearGradient>
    <linearGradient id="liquid" x1="0%" y1="0%" x2="0%" y2="100%">
      <stop offset="0%" stop-color="#d4ebe0"/>
      <stop offset="100%" stop-color="#9bc4b0"/>
    </linearGradient>
  </defs>
  <rect width="640" height="400" fill="url(#bg)"/>
  <circle cx="510" cy="88" r="108" fill="#2d6a4f" opacity="0.07"/>
  <circle cx="105" cy="308" r="90" fill="#7eb8a0" opacity="0.1"/>
  <g transform="translate(205 62)">
    <rect x="58" y="0" width="64" height="28" rx="6" fill="#2d6a4f" opacity="0.25"/>
    <rect x="44" y="20" width="92" height="200" rx="12" fill="url(#vial)" stroke="#c5d4cb" stroke-width="1.5"/>
    <rect x="52" y="120" width="76" height="88" rx="8" fill="url(#liquid)" opacity="0.55"/>
    <rect x="68" y="72" width="44" height="36" rx="6" fill="#2d6a4f" opacity="0.1"/>
    <rect x="168" y="48" width="92" height="172" rx="12" fill="url(#vial)" stroke="#c5d4cb" stroke-width="1.5"/>
    <rect x="176" y="132" width="76" height="76" rx="8" fill="url(#liquid)" opacity="0.45"/>
    <rect x="188" y="24" width="52" height="28" rx="6" fill="#2d6a4f" opacity="0.22"/>
    <circle cx="214" cy="96" r="14" fill="#2d6a4f" opacity="0.12"/>
  </g>
</svg>
